<svg version="1.1" xmlns="http://www.w3.org/2000/svg" viewBox="0 0 2055.3559120617942 990.9411764705897" width="4110.7118241235885" height="1981.8823529411793">
  <!-- svg-source:excalidraw -->
  
  <defs>
    <style>
      @font-face {
        font-family: "Virgil";
        src: url("https://excalidraw.com/Virgil.woff2");
      }
      @font-face {
        font-family: "Cascadia";
        src: url("https://excalidraw.com/Cascadia.woff2");
      }
    </style>
  </defs>
  <rect x="0" y="0" width="2055.3559120617942" height="990.9411764705897" fill="#ffffff"></rect><g stroke-linecap="round" transform="translate(10 10) rotate(0 84.75 67.75)"><path d="M84.75 0 C96.42 -1.02, 110.53 2.47, 121.59 6.74 C132.65 11, 143.46 17.92, 151.1 25.6 C158.74 33.29, 164.72 43.27, 167.42 52.85 C170.13 62.42, 170.08 73.5, 167.31 83.06 C164.53 92.62, 158.48 102.58, 150.78 110.22 C143.08 117.87, 132.21 124.73, 121.12 128.94 C110.03 133.16, 96.51 135.56, 84.23 135.5 C71.95 135.44, 58.47 132.9, 47.44 128.58 C36.42 124.26, 25.65 117.29, 18.07 109.57 C10.49 101.85, 4.59 91.83, 1.96 82.24 C-0.66 72.66, -0.54 61.59, 2.31 52.04 C5.16 42.49, 11.29 32.56, 19.05 24.95 C26.81 17.34, 37.9 10.54, 48.85 6.38 C59.8 2.22, 78.77 0.84, 84.75 0 C90.73 -0.84, 84.75 0.23, 84.75 1.36 M84.75 0 C96.42 -1.02, 110.53 2.47, 121.59 6.74 C132.65 11, 143.46 17.92, 151.1 25.6 C158.74 33.29, 164.72 43.27, 167.42 52.85 C170.13 62.42, 170.08 73.5, 167.31 83.06 C164.53 92.62, 158.48 102.58, 150.78 110.22 C143.08 117.87, 132.21 124.73, 121.12 128.94 C110.03 133.16, 96.51 135.56, 84.23 135.5 C71.95 135.44, 58.47 132.9, 47.44 128.58 C36.42 124.26, 25.65 117.29, 18.07 109.57 C10.49 101.85, 4.59 91.83, 1.96 82.24 C-0.66 72.66, -0.54 61.59, 2.31 52.04 C5.16 42.49, 11.29 32.56, 19.05 24.95 C26.81 17.34, 37.9 10.54, 48.85 6.38 C59.8 2.22, 78.77 0.84, 84.75 0 C90.73 -0.84, 84.75 0.23, 84.75 1.36" stroke="#000000" stroke-width="1" fill="none"></path></g><g stroke-linecap="round"><g transform="translate(181.5 85.5) rotate(0 114.7243608041387 4.480376579435529)"><path d="M0.27 -0.11 C38.77 1.5, 192.11 8.39, 230.49 10.18 M-1.04 -1.22 C37.34 0.01, 191.06 6.73, 229.54 8.42" stroke="#000000" stroke-width="1" fill="none"></path></g><g transform="translate(181.5 85.5) rotate(0 114.7243608041387 4.480376579435529)"><path d="M200.74 17.43 C209.39 15.15, 217.54 12.55, 230.03 9.12 M201.71 17.47 C209.55 15.78, 216.67 12.01, 229.83 7.61" stroke="#000000" stroke-width="1" fill="none"></path></g><g transform="translate(181.5 85.5) rotate(0 114.7243608041387 4.480376579435529)"><path d="M201.63 -3.08 C210.13 -0.08, 218.06 2.6, 230.03 9.12 M202.61 -3.04 C210.06 0.87, 216.93 2.71, 229.83 7.61" stroke="#000000" stroke-width="1" fill="none"></path></g></g><g transform="translate(198.5 51.5) rotate(0 74 12.5)"><text x="74" y="18" font-family="Virgil, Segoe UI Emoji" font-size="20px" fill="#000000" text-anchor="middle" style="white-space: pre;" direction="ltr">L Bumper Down</text></g><g stroke-linecap="round" transform="translate(418 45.5) rotate(0 76 53.75)"><path d="M94.55 1.17 C105.97 2.31, 119.18 7.83, 128.02 13.61 C136.87 19.39, 143.79 28.08, 147.61 35.83 C151.43 43.59, 152.57 51.96, 150.95 60.13 C149.34 68.3, 144.63 77.81, 137.91 84.85 C131.19 91.9, 121.32 98.53, 110.63 102.4 C99.93 106.26, 85.71 108.2, 73.75 108.05 C61.78 107.89, 48.89 105.71, 38.82 101.49 C28.75 97.26, 19.68 89.92, 13.31 82.7 C6.94 75.48, 1.91 66.35, 0.61 58.16 C-0.68 49.98, 1.04 41.09, 5.53 33.56 C10.03 26.04, 18.48 18.38, 27.57 13.02 C36.66 7.65, 47.64 3.08, 60.08 1.35 C72.51 -0.37, 94.09 1.73, 102.16 2.67 C110.22 3.6, 109.08 6.14, 108.48 6.96 M86.99 -0.72 C98.26 -0.68, 110.13 4.36, 119.76 9.34 C129.38 14.32, 139.2 21.47, 144.75 29.15 C150.3 36.84, 153.17 46.94, 153.06 55.43 C152.95 63.93, 149.71 73.1, 144.11 80.13 C138.51 87.16, 129.61 93.07, 119.47 97.62 C109.33 102.17, 95.47 106.52, 83.27 107.43 C71.07 108.34, 56.99 106.17, 46.25 103.09 C35.52 100.01, 26.12 95.32, 18.84 88.94 C11.56 82.57, 5.47 73.22, 2.58 64.84 C-0.32 56.46, -1.52 46.81, 1.46 38.66 C4.44 30.52, 12.12 21.92, 20.45 15.96 C28.78 10.01, 40.44 5.29, 51.45 2.93 C62.45 0.58, 80.74 2.24, 86.49 1.83 C92.24 1.43, 86.25 -0.2, 85.93 0.5" stroke="#000000" stroke-width="1" fill="none"></path></g><g stroke-linecap="round"><g transform="translate(571.5 98.5) rotate(0 124.17043313644825 2.2779294941574335)"><path d="M-0.51 -0.7 C41 0.13, 207.56 4.22, 248.85 5.25 M1.43 1.55 C42.87 1.97, 206.96 2.95, 248.34 3.26" stroke="#000000" stroke-width="1" fill="none"></path></g><g transform="translate(571.5 98.5) rotate(0 124.17043313644825 2.2779294941574335)"><path d="M218.92 14.75 C228.47 9.31, 236.88 8.28, 247.52 2.01 M220.66 13.46 C228.21 10.11, 236.56 7.98, 247.35 3.62" stroke="#000000" stroke-width="1" fill="none"></path></g><g transform="translate(571.5 98.5) rotate(0 124.17043313644825 2.2779294941574335)"><path d="M219.06 -5.77 C228.62 -5.41, 236.99 -0.64, 247.52 2.01 M220.8 -7.06 C228.19 -4.48, 236.5 -0.69, 247.35 3.62" stroke="#000000" stroke-width="1" fill="none"></path></g></g><g stroke-linecap="round" transform="translate(823.5 56.5) rotate(0 73 50)"><path d="M72.45 0 C83.67 -0.9, 97.02 2.33, 107.05 6 C117.07 9.68, 126.03 15.44, 132.61 22.04 C139.19 28.64, 145.29 37.67, 146.53 45.58 C147.78 53.49, 144.88 62.37, 140.07 69.49 C135.25 76.61, 126.63 83.29, 117.64 88.29 C108.65 93.3, 97.37 97.94, 86.12 99.52 C74.87 101.11, 61.2 100.5, 50.13 97.78 C39.05 95.07, 27.59 89.13, 19.68 83.24 C11.77 77.34, 5.5 70.07, 2.67 62.41 C-0.16 54.76, 0.04 45.2, 2.7 37.3 C5.36 29.4, 10.71 20.86, 18.62 15.01 C26.54 9.16, 39.58 4.64, 50.18 2.19 C60.78 -0.26, 75.16 0.27, 82.23 0.32 C89.31 0.38, 92.69 1.57, 92.65 2.53 M86.25 1.77 C97.35 2.68, 111.81 7.47, 120.66 12.22 C129.52 16.97, 135.04 22.78, 139.39 30.26 C143.73 37.74, 147.68 49.18, 146.71 57.11 C145.75 65.05, 140.59 71.75, 133.6 77.86 C126.62 83.98, 115.32 90.25, 104.8 93.81 C94.27 97.36, 82.03 99.49, 70.45 99.2 C58.88 98.91, 45.39 95.78, 35.35 92.07 C25.32 88.37, 16.03 83.42, 10.22 76.96 C4.42 70.5, 1.17 61.33, 0.53 53.33 C-0.12 45.34, 1.33 36.12, 6.36 28.99 C11.38 21.86, 20.71 15.15, 30.66 10.56 C40.61 5.96, 56.87 2.88, 66.07 1.43 C75.27 -0.01, 82.51 1.76, 85.86 1.88 C89.2 2.01, 86.31 1.42, 86.13 2.16" stroke="#000000" stroke-width="1" fill="none"></path></g><g stroke-linecap="round"><g transform="translate(406.20139694147167 118.77526480108355) rotate(0 -121.80437712921045 2.1532987951516986)"><path d="M-0.69 0.57 C-41.29 0.99, -203.5 2.79, -243.95 3.21 M1.15 -0.18 C-39.56 0.35, -203.94 3.77, -244.76 4.48" stroke="#000000" stroke-width="1" fill="none"></path></g><g transform="translate(406.20139694147167 118.77526480108355) rotate(0 -121.80437712921045 2.1532987951516986)"><path d="M-215.82 -5.87 C-225.19 -2.22, -232.97 1.3, -245.7 3.61 M-217.23 -6.15 C-223.27 -4.13, -231.67 0.12, -245.4 4.45" stroke="#000000" stroke-width="1" fill="none"></path></g><g transform="translate(406.20139694147167 118.77526480108355) rotate(0 -121.80437712921045 2.1532987951516986)"><path d="M-215.43 14.65 C-225.02 12.71, -232.91 10.64, -245.7 3.61 M-216.83 14.37 C-223.14 11.18, -231.64 10.22, -245.4 4.45" stroke="#000000" stroke-width="1" fill="none"></path></g></g><g transform="translate(175.5 138.5) rotate(0 122.5 12.5)"><text x="122.5" y="18" font-family="Virgil, Segoe UI Emoji" font-size="20px" fill="#000000" text-anchor="middle" style="white-space: pre;" direction="ltr">Anything but Start Down</text></g><g transform="translate(626.5 66.5) rotate(0 57.5 12.5)"><text x="57.5" y="18" font-family="Virgil, Segoe UI Emoji" font-size="20px" fill="#000000" text-anchor="middle" style="white-space: pre;" direction="ltr">Start Down</text></g><g transform="translate(859.5 69) rotate(0 37 37.5)"><text x="37" y="18" font-family="Virgil, Segoe UI Emoji" font-size="20px" fill="#000000" text-anchor="middle" style="white-space: pre;" direction="ltr">Maybe</text><text x="37" y="43" font-family="Virgil, Segoe UI Emoji" font-size="20px" fill="#000000" text-anchor="middle" style="white-space: pre;" direction="ltr">Enabled</text><text x="37" y="68" font-family="Virgil, Segoe UI Emoji" font-size="20px" fill="#000000" text-anchor="middle" style="white-space: pre;" direction="ltr">B</text></g><g stroke-linecap="round"><g transform="translate(974.5 112.5) rotate(0 100.09597993491212 6.0314582803472945)"><path d="M-0.3 0.94 C32.87 2.55, 164.99 8.98, 198.2 10.61 M1.74 0.39 C35.36 2.04, 167.75 9.81, 200.49 11.67" stroke="#000000" stroke-width="1" fill="none"></path></g><g transform="translate(974.5 112.5) rotate(0 100.09597993491212 6.0314582803472945)"><path d="M173.32 18.96 C176.89 18.33, 183.75 15.44, 199.65 12.37 M171.94 20.23 C182.55 16.15, 193.84 12.9, 200.21 10.85" stroke="#000000" stroke-width="1" fill="none"></path></g><g transform="translate(974.5 112.5) rotate(0 100.09597993491212 6.0314582803472945)"><path d="M174.51 -1.53 C177.96 2.62, 184.54 4.5, 199.65 12.37 M173.12 -0.25 C183.45 3.54, 194.29 8.18, 200.21 10.85" stroke="#000000" stroke-width="1" fill="none"></path></g></g><g stroke-linecap="round" transform="translate(1186.5 74) rotate(0 79 60.75)"><path d="M57.47 1.46 C67.88 -1.61, 81.91 -0.81, 93.72 1.24 C105.54 3.28, 118.86 7.98, 128.35 13.73 C137.84 19.49, 145.76 27.52, 150.66 35.77 C155.56 44.02, 158.01 54.19, 157.76 63.23 C157.51 72.27, 154.83 82.18, 149.17 90.01 C143.52 97.84, 133.83 104.99, 123.84 110.21 C113.85 115.43, 101.07 120, 89.22 121.32 C77.37 122.63, 63.98 121.16, 52.76 118.1 C41.54 115.04, 30.21 109.52, 21.9 102.97 C13.6 96.42, 6.39 87.62, 2.93 78.8 C-0.52 69.99, -0.79 59.1, 1.17 50.07 C3.12 41.05, 7.57 31.94, 14.64 24.68 C21.72 17.41, 35.01 10.62, 43.63 6.48 C52.25 2.35, 61.06 0.75, 66.35 -0.12 C71.64 -1, 75.13 0.09, 75.36 1.23 M52.61 4.34 C62.56 0.17, 74.93 -1.24, 86.57 -0.37 C98.22 0.5, 112.27 4.44, 122.48 9.55 C132.7 14.65, 141.74 22.38, 147.87 30.23 C153.99 38.09, 158.69 47.63, 159.23 56.67 C159.76 65.72, 155.99 76, 151.07 84.51 C146.16 93.02, 139.1 101.67, 129.76 107.71 C120.42 113.76, 106.93 118.87, 95.03 120.78 C83.13 122.68, 69.82 121.5, 58.34 119.15 C46.86 116.8, 34.94 112.7, 26.16 106.68 C17.38 100.66, 10.02 91.5, 5.65 83.03 C1.28 74.56, -1.04 65.17, -0.05 55.88 C0.95 46.58, 5.08 35.22, 11.62 27.28 C18.16 19.34, 32.6 12.37, 39.18 8.24 C45.77 4.12, 49.12 2.82, 51.12 2.53 C53.12 2.23, 50.89 5.1, 51.16 6.46" stroke="#000000" stroke-width="1" fill="none"></path></g><g transform="translate(1228.5 97.25) rotate(0 37 37.5)"><text x="37" y="18" font-family="Virgil, Segoe UI Emoji" font-size="20px" fill="#000000" text-anchor="middle" style="white-space: pre;" direction="ltr">Maybe</text><text x="37" y="43" font-family="Virgil, Segoe UI Emoji" font-size="20px" fill="#000000" text-anchor="middle" style="white-space: pre;" direction="ltr">Enabled</text><text x="37" y="68" font-family="Virgil, Segoe UI Emoji" font-size="20px" fill="#000000" text-anchor="middle" style="white-space: pre;" direction="ltr">C</text></g><g transform="translate(1015.9999999999998 82) rotate(0 45.50000000000006 12.5)"><text x="45.5" y="18" font-family="Virgil, Segoe UI Emoji" font-size="20px" fill="#000000" text-anchor="middle" style="white-space: pre;" direction="ltr">Start Up</text></g><g transform="translate(457 61.75) rotate(0 37 37.5)"><text x="37" y="18" font-family="Virgil, Segoe UI Emoji" font-size="20px" fill="#000000" text-anchor="middle" style="white-space: pre;" direction="ltr">Maybe</text><text x="37" y="43" font-family="Virgil, Segoe UI Emoji" font-size="20px" fill="#000000" text-anchor="middle" style="white-space: pre;" direction="ltr">Enabled</text><text x="37" y="68" font-family="Virgil, Segoe UI Emoji" font-size="20px" fill="#000000" text-anchor="middle" style="white-space: pre;" direction="ltr">A</text></g><g transform="translate(47.25 52.75) rotate(0 47.5 25)"><text x="47.5" y="18" font-family="Virgil, Segoe UI Emoji" font-size="20px" fill="#000000" text-anchor="middle" style="white-space: pre;" direction="ltr">Controller</text><text x="47.5" y="43" font-family="Virgil, Segoe UI Emoji" font-size="20px" fill="#000000" text-anchor="middle" style="white-space: pre;" direction="ltr">Disabled</text></g><g transform="translate(1241 234.66666666666697) rotate(0 47.5 12.5)"><text x="47.5" y="18" font-family="Virgil, Segoe UI Emoji" font-size="20px" fill="#000000" text-anchor="middle" style="white-space: pre;" direction="ltr">LBump Up</text></g><g stroke-linecap="round"><g transform="translate(830 141.5) rotate(0 -133.38702505332418 -8.076349011389539)"><path d="M0.23 0.65 C-44.05 -1.89, -221.87 -12.34, -266.55 -14.79 M-1.11 -0.05 C-45.38 -3.02, -222.38 -14.17, -267 -16.8" stroke="#000000" stroke-width="1" fill="none"></path></g><g transform="translate(830 141.5) rotate(0 -133.38702505332418 -8.076349011389539)"><path d="M-237.15 -23.74 C-244.33 -23.99, -249.55 -22.41, -267.27 -17.05 M-238.48 -24.7 C-248.34 -22.11, -256.68 -19.16, -267.3 -16.41" stroke="#000000" stroke-width="1" fill="none"></path></g><g transform="translate(830 141.5) rotate(0 -133.38702505332418 -8.076349011389539)"><path d="M-238.41 -3.25 C-245.39 -8.12, -250.32 -11.16, -267.27 -17.05 M-239.74 -4.22 C-249.03 -8.31, -256.96 -12.02, -267.3 -16.41" stroke="#000000" stroke-width="1" fill="none"></path></g></g><g stroke-linecap="round"><g transform="translate(896.4999999999998 165.5) rotate(0 -284.50495952369647 38.45007508011537)"><path d="M0.96 0.83 C-65.19 13.55, -300.7 76.1, -395.75 76.67 C-490.79 77.25, -540.19 16.59, -569.31 4.3 M0.01 0.23 C-66.38 12.56, -301.57 74.54, -396.56 74.9 C-491.56 75.26, -540.94 14.23, -569.97 2.38" stroke="#000000" stroke-width="1" fill="none"></path></g><g transform="translate(896.4999999999998 165.5) rotate(0 -284.50495952369647 38.45007508011537)"><path d="M-539.35 9.54 C-551.19 7.01, -562.52 2.4, -570.85 2.27 M-540.14 8.23 C-551.06 7.47, -561.26 3.91, -570.36 3.07" stroke="#000000" stroke-width="1" fill="none"></path></g><g transform="translate(896.4999999999998 165.5) rotate(0 -284.50495952369647 38.45007508011537)"><path d="M-550.52 26.75 C-558 17.34, -564.92 5.92, -570.85 2.27 M-551.3 25.44 C-558.5 18.82, -564.84 9.29, -570.36 3.07" stroke="#000000" stroke-width="1" fill="none"></path></g></g><g transform="translate(630.5 135) rotate(0 45.5 12.5)"><text x="45.5" y="18" font-family="Virgil, Segoe UI Emoji" font-size="20px" fill="#000000" text-anchor="middle" style="white-space: pre;" direction="ltr">Start Up</text></g><g stroke-linecap="round"><g transform="translate(1192 160) rotate(0 -117.70821250108071 -10.305639666793866)"><path d="M0.27 0.77 C-38.87 -2.33, -195.35 -15.87, -234.65 -19.51 M-1.05 0.13 C-40.37 -3.25, -196.99 -17.97, -235.68 -21.38" stroke="#000000" stroke-width="1" fill="none"></path></g><g transform="translate(1192 160) rotate(0 -117.70821250108071 -10.305639666793866)"><path d="M-205.39 -29.29 C-214.97 -28.36, -226.65 -23.45, -235.12 -20.66 M-207.44 -28.81 C-213.02 -26.93, -219.14 -25.19, -235.47 -21.76" stroke="#000000" stroke-width="1" fill="none"></path></g><g transform="translate(1192 160) rotate(0 -117.70821250108071 -10.305639666793866)"><path d="M-207.26 -8.85 C-216.1 -14.3, -227.2 -15.76, -235.12 -20.66 M-209.31 -8.38 C-214.67 -11.11, -220.37 -13.97, -235.47 -21.76" stroke="#000000" stroke-width="1" fill="none"></path></g></g><g transform="translate(961.5 156.5) rotate(0 57.49999999999994 12.5)"><text x="57.5" y="18" font-family="Virgil, Segoe UI Emoji" font-size="20px" fill="#000000" text-anchor="middle" style="white-space: pre;" direction="ltr">Start Down</text></g><g stroke-linecap="round"><g transform="translate(1250.5 197) rotate(0 -366.0301350508817 34.14098345178661)"><path d="M1.03 -0.65 C-82.28 10.73, -377.83 60.43, -500.15 67.74 C-622.48 75.05, -694 47.16, -732.9 43.19 M0.12 1.62 C-82.78 12.67, -375.58 58.58, -497.78 65.74 C-619.99 72.91, -693.87 48.58, -733.09 44.61" stroke="#000000" stroke-width="1" fill="none"></path></g><g transform="translate(1250.5 197) rotate(0 -366.0301350508817 34.14098345178661)"><path d="M-704.67 38.14 C-711.4 42.81, -719.67 43.17, -731.47 45.09 M-702.99 39.81 C-714.99 40.79, -724.26 43.56, -732.38 44.58" stroke="#000000" stroke-width="1" fill="none"></path></g><g transform="translate(1250.5 197) rotate(0 -366.0301350508817 34.14098345178661)"><path d="M-708.11 58.37 C-713.79 57.39, -721.1 52.14, -731.47 45.09 M-706.43 60.04 C-717.4 53.77, -725.44 49.27, -732.38 44.58" stroke="#000000" stroke-width="1" fill="none"></path></g></g><g stroke-linecap="round" transform="translate(1194.8333333333335 366.33333333333394) rotate(0 125.25 50.5)"><path d="M142.78 -0.32 C158.46 -0.22, 175.71 3.04, 189.75 6.54 C203.79 10.04, 217.38 15.31, 227.03 20.67 C236.68 26.02, 243.91 32.11, 247.65 38.68 C251.39 45.24, 252.53 53.59, 249.47 60.08 C246.4 66.56, 238.27 72.17, 229.25 77.61 C220.23 83.04, 208.76 88.99, 195.33 92.69 C181.91 96.39, 164.81 98.62, 148.72 99.79 C132.62 100.97, 114.94 101.07, 98.75 99.73 C82.55 98.39, 65.12 95.64, 51.54 91.75 C37.96 87.87, 25.76 82.16, 17.26 76.42 C8.76 70.69, 2.71 63.81, 0.54 57.35 C-1.63 50.89, -0.09 43.98, 4.24 37.68 C8.58 31.38, 16.31 24.75, 26.55 19.53 C36.8 14.32, 51.45 9.56, 65.71 6.38 C79.98 3.21, 98.18 1.52, 112.14 0.49 C126.11 -0.54, 142.08 -0.18, 149.52 0.2 C156.96 0.58, 157.01 1.94, 156.79 2.78 M93.63 0.17 C108.03 -1.87, 127.8 0.24, 144.17 1.37 C160.55 2.51, 177.81 3.61, 191.87 6.99 C205.93 10.38, 219.29 16.27, 228.53 21.68 C237.78 27.1, 244.33 33.08, 247.34 39.49 C250.35 45.89, 249.71 53.4, 246.58 60.11 C243.45 66.83, 237.41 74.36, 228.55 79.79 C219.69 85.22, 207.16 89.35, 193.41 92.67 C179.66 95.99, 162.44 98.34, 146.03 99.71 C129.62 101.09, 111.04 102.22, 94.94 100.92 C78.85 99.63, 62.74 95.95, 49.48 91.94 C36.22 87.94, 23.46 82.96, 15.36 76.9 C7.26 70.85, 2.78 62.42, 0.87 55.6 C-1.04 48.79, -0.6 42.25, 3.89 36.01 C8.38 29.77, 17.37 23.08, 27.81 18.17 C38.25 13.26, 55.34 9.35, 66.52 6.54 C77.7 3.74, 89.92 2.24, 94.89 1.35 C99.86 0.45, 95.78 0.22, 96.35 1.17" stroke="#000000" stroke-width="1" fill="none"></path></g><g transform="translate(1283.0833333333335 404.33333333333394) rotate(0 37 12.5)"><text x="37" y="18" font-family="Virgil, Segoe UI Emoji" font-size="20px" fill="#000000" text-anchor="middle" style="white-space: pre;" direction="ltr">Enabled</text></g><g transform="translate(1410.606060606061 309.83333333333394) rotate(0 105.5 25)"><text x="105.5" y="18" font-family="Virgil, Segoe UI Emoji" font-size="20px" fill="#000000" text-anchor="middle" style="white-space: pre;" direction="ltr">Jog Buttons Pressed</text><text x="105.5" y="43" font-family="Virgil, Segoe UI Emoji" font-size="20px" fill="#000000" text-anchor="middle" style="white-space: pre;" direction="ltr">(UDLRAB)</text></g><g stroke-linecap="round" transform="translate(1638.5151515151515 260.8787878787889) rotate(0 80.75 41.5)"><path d="M63.23 0.91 C74.71 -1.05, 90.33 0.17, 102.48 2.02 C114.63 3.87, 127 7.57, 136.14 12 C145.27 16.43, 153.38 22.64, 157.28 28.62 C161.18 34.59, 161.61 41.32, 159.55 47.86 C157.48 54.39, 152.6 62.5, 144.89 67.8 C137.19 73.1, 125.04 77, 113.33 79.65 C101.63 82.3, 87.5 84.32, 74.65 83.69 C61.8 83.06, 47.09 79.66, 36.23 75.86 C25.36 72.05, 15.62 66.55, 9.48 60.85 C3.33 55.16, -0.63 48.2, -0.64 41.68 C-0.65 35.16, 3.51 27.42, 9.43 21.74 C15.36 16.07, 23.32 11.14, 34.91 7.63 C46.5 4.12, 69.21 1.64, 78.98 0.67 C88.75 -0.3, 93.46 1.18, 93.52 1.79 M72.27 1.08 C83.98 -0.2, 97.78 1.95, 109.32 4.03 C120.86 6.1, 132.89 8.86, 141.51 13.56 C150.12 18.26, 158.02 25.54, 161 32.24 C163.99 38.94, 163.32 47.32, 159.44 53.76 C155.55 60.21, 146.9 66.2, 137.68 70.91 C128.47 75.62, 116.35 80.36, 104.17 82.03 C92 83.71, 76.9 82.14, 64.62 80.95 C52.35 79.77, 40 78.65, 30.53 74.92 C21.06 71.2, 13.04 64.93, 7.83 58.6 C2.61 52.27, -1.42 43.51, -0.75 36.96 C-0.09 30.4, 4.54 24.53, 11.83 19.27 C19.12 14.02, 32.89 8.47, 42.97 5.41 C53.05 2.35, 67.74 1.55, 72.31 0.9 C76.88 0.25, 70.41 0.97, 70.37 1.52" stroke="#000000" stroke-width="1" fill="none"></path></g><g transform="translate(1678.628787878788 266.92424242424295) rotate(0 42 37.5)"><text x="42" y="18" font-family="Virgil, Segoe UI Emoji" font-size="20px" fill="#000000" text-anchor="middle" style="white-space: pre;" direction="ltr">Wait for</text><text x="42" y="43" font-family="Virgil, Segoe UI Emoji" font-size="20px" fill="#000000" text-anchor="middle" style="white-space: pre;" direction="ltr">SAME</text><text x="42" y="68" font-family="Virgil, Segoe UI Emoji" font-size="20px" fill="#000000" text-anchor="middle" style="white-space: pre;" direction="ltr">Jog Up</text></g><g stroke-linecap="round"><g transform="translate(1709.2896272097355 252.78427036699736) rotate(0 -56.562700635423425 -27.988913294999918)"><path d="M0.89 1.18 C-17.93 -8.09, -94.28 -45.73, -113.1 -55.18 M-0.1 0.76 C-19.06 -8.94, -95.33 -48, -114.02 -57.16" stroke="#000000" stroke-width="1" fill="none"></path></g><g transform="translate(1709.2896272097355 252.78427036699736) rotate(0 -56.562700635423425 -27.988913294999918)"><path d="M-82.25 -53.57 C-92.3 -52.59, -101.35 -54.95, -113.68 -56.81 M-84.69 -52.95 C-95.81 -56.13, -107.83 -56.95, -114.05 -56.99" stroke="#000000" stroke-width="1" fill="none"></path></g><g transform="translate(1709.2896272097355 252.78427036699736) rotate(0 -56.562700635423425 -27.988913294999918)"><path d="M-91.47 -35.24 C-98.96 -39.56, -105.38 -47.15, -113.68 -56.81 M-93.91 -34.62 C-101.56 -44.89, -109.97 -52.88, -114.05 -56.99" stroke="#000000" stroke-width="1" fill="none"></path></g></g><g transform="translate(1627.5151515151515 150.78787878787944) rotate(0 56.5 37.5)"><text x="56.5" y="18" font-family="Virgil, Segoe UI Emoji" font-size="20px" fill="#000000" text-anchor="middle" style="white-space: pre;" direction="ltr">Jog Button</text><text x="56.5" y="43" font-family="Virgil, Segoe UI Emoji" font-size="20px" fill="#000000" text-anchor="middle" style="white-space: pre;" direction="ltr">Release</text><text x="56.5" y="68" font-family="Virgil, Segoe UI Emoji" font-size="20px" fill="#000000" text-anchor="middle" style="white-space: pre;" direction="ltr">(UDLRAB)</text></g><g stroke-linecap="round" transform="translate(1466.969696969697 139.28787878787944) rotate(0 62.5 49)"><path d="M87.64 4.26 C97.24 6.85, 106.81 13.63, 113.11 20.12 C119.41 26.61, 124.42 35, 125.45 43.2 C126.48 51.4, 123.85 61.87, 119.31 69.33 C114.78 76.79, 106.64 83.37, 98.24 87.95 C89.84 92.53, 79.08 95.92, 68.89 96.82 C58.71 97.72, 46.55 96.45, 37.15 93.36 C27.74 90.26, 18.46 84.97, 12.47 78.24 C6.48 71.52, 2.4 61.42, 1.2 53.01 C0.01 44.59, 0.99 35.03, 5.31 27.75 C9.63 20.47, 18.61 13.88, 27.12 9.33 C35.63 4.78, 45.78 1.23, 56.36 0.44 C66.95 -0.35, 84.73 3.36, 90.64 4.6 C96.55 5.85, 92.33 7.27, 91.84 7.94 M56.24 -1.14 C65.9 -2.36, 77.87 0.7, 87.49 4.58 C97.1 8.46, 107.91 15.38, 113.93 22.14 C119.96 28.9, 122.94 37.37, 123.64 45.15 C124.33 52.92, 122.13 61.65, 118.08 68.79 C114.04 75.93, 107.94 83.27, 99.36 88 C90.79 92.73, 77.03 96.18, 66.62 97.18 C56.21 98.17, 46.37 97.2, 36.9 93.98 C27.42 90.77, 16.03 84.84, 9.78 77.88 C3.53 70.91, 0.11 60.7, -0.6 52.18 C-1.31 43.67, 1.08 33.85, 5.53 26.77 C9.98 19.69, 17.69 14.1, 26.11 9.7 C34.53 5.31, 51.18 1.79, 56.06 0.41 C60.94 -0.97, 55.17 0.86, 55.39 1.42" stroke="#000000" stroke-width="4" fill="none"></path></g><g transform="translate(1482.742424242424 176.69696969697043) rotate(0 44 12.5)"><text x="44" y="18" font-family="Virgil, Segoe UI Emoji" font-size="20px" fill="#000000" text-anchor="middle" style="white-space: pre;" direction="ltr">Send Jog</text></g><g stroke-linecap="round"><g transform="translate(1463.1221978350436 211.32128435650793) rotate(0 -72.03945430181784 70.84124802009973)"><path d="M-0.28 0.14 C-24.44 23.46, -121.79 117.64, -145.85 140.89 M1.77 -0.83 C-21.94 22.63, -119.11 118.97, -143.62 142.52" stroke="#000000" stroke-width="1" fill="none"></path></g><g transform="translate(1463.1221978350436 211.32128435650793) rotate(0 -72.03945430181784 70.84124802009973)"><path d="M-130.41 113.94 C-133.04 121.95, -137.99 129.07, -143.06 142.93 M-130.2 114.83 C-135.18 125.65, -139.24 133.39, -144.36 141.92" stroke="#000000" stroke-width="1" fill="none"></path></g><g transform="translate(1463.1221978350436 211.32128435650793) rotate(0 -72.03945430181784 70.84124802009973)"><path d="M-116.06 128.61 C-122.02 133.3, -130.18 137.14, -143.06 142.93 M-115.84 129.5 C-125.76 135.24, -134.74 137.96, -144.36 141.92" stroke="#000000" stroke-width="1" fill="none"></path></g></g><g stroke-linecap="round"><g transform="translate(1209.4318628545102 383.20925358906425) rotate(0 -104.34271128191199 -9.510822973557765)"><path d="M0.98 0.67 C-33.67 -2.65, -173.89 -16.47, -208.99 -19.69 M0.04 -0.02 C-34.63 -3.2, -174.6 -14.97, -209.67 -18.43" stroke="#000000" stroke-width="1" fill="none"></path></g><g transform="translate(1209.4318628545102 383.20925358906425) rotate(0 -104.34271128191199 -9.510822973557765)"><path d="M-179.55 -25.26 C-187.56 -24.41, -191.9 -21.7, -208.45 -17.87 M-180.73 -25.91 C-190.47 -23.16, -200.73 -21.08, -208.7 -19.42" stroke="#000000" stroke-width="1" fill="none"></path></g><g transform="translate(1209.4318628545102 383.20925358906425) rotate(0 -104.34271128191199 -9.510822973557765)"><path d="M-181.4 -4.82 C-189.06 -8.25, -193.02 -9.79, -208.45 -17.87 M-182.57 -5.47 C-191.55 -9.94, -201.15 -15.1, -208.7 -19.42" stroke="#000000" stroke-width="1" fill="none"></path></g></g><g stroke-linecap="round" transform="translate(834.3333333333334 299.83333333333394) rotate(0 82.75 50)"><path d="M62.54 1.58 C73.97 -1.12, 89.12 -0.84, 101.28 1.01 C113.44 2.86, 125.98 7.65, 135.5 12.67 C145.03 17.7, 153.55 24.25, 158.44 31.18 C163.32 38.1, 165.62 46.51, 164.8 54.24 C163.98 61.97, 160.22 71.12, 153.52 77.55 C146.83 83.98, 135.51 88.94, 124.63 92.82 C113.75 96.7, 100.72 100.44, 88.23 100.81 C75.75 101.17, 61.51 98.16, 49.72 95.03 C37.94 91.9, 25.51 87.85, 17.52 82.02 C9.52 76.18, 4.28 67.65, 1.74 60 C-0.79 52.35, -1.18 43.4, 2.31 36.1 C5.8 28.8, 13.81 21.61, 22.68 16.2 C31.55 10.79, 48.26 6.05, 55.53 3.63 C62.79 1.21, 63.83 1.87, 66.25 1.68 C68.66 1.49, 69.79 1.76, 70.01 2.5 M53.61 2.16 C64.25 -1.36, 79.8 -1.96, 92.31 -1.18 C104.81 -0.39, 118.12 2.54, 128.64 6.88 C139.17 11.23, 149.34 17.79, 155.45 24.89 C161.56 31.99, 164.92 41.78, 165.29 49.49 C165.65 57.2, 163.22 64.45, 157.62 71.16 C152.03 77.87, 141.64 85.19, 131.73 89.73 C121.81 94.27, 110.45 96.85, 98.12 98.42 C85.78 99.99, 70.08 101.24, 57.73 99.14 C45.37 97.05, 32.9 91.57, 23.97 85.86 C15.05 80.16, 8.05 72.01, 4.2 64.92 C0.35 57.83, -0.91 50.61, 0.87 43.31 C2.65 36, 7.48 27.29, 14.88 21.09 C22.29 14.9, 38.75 9.02, 45.3 6.13 C51.86 3.23, 52.95 4.03, 54.21 3.73 C55.46 3.42, 52.8 3.64, 52.83 4.32" stroke="#000000" stroke-width="1" fill="none"></path></g><g transform="translate(1022.3333333333334 336.83333333333394) rotate(0 91.5 12.5)"><text x="91.5" y="18" font-family="Virgil, Segoe UI Emoji" font-size="20px" fill="#000000" text-anchor="middle" style="white-space: pre;" direction="ltr">BBumps + X Press</text></g><g transform="translate(877.5833333333334 323.33333333333394) rotate(0 42 25)"><text x="42" y="18" font-family="Virgil, Segoe UI Emoji" font-size="20px" fill="#000000" text-anchor="middle" style="white-space: pre;" direction="ltr">Wait for</text><text x="42" y="43" font-family="Virgil, Segoe UI Emoji" font-size="20px" fill="#000000" text-anchor="middle" style="white-space: pre;" direction="ltr">ResetX</text></g><g stroke-linecap="round"><g transform="translate(979.3333333333334 307.83333333333394) rotate(0 46.852614806769395 -16.796725049987458)"><path d="M0.51 0.99 C16.4 -4.84, 78.86 -28.74, 94.39 -34.58 M-0.68 0.46 C15.21 -5.29, 78.29 -28.03, 93.9 -33.61" stroke="#000000" stroke-width="1" fill="none"></path></g><g transform="translate(979.3333333333334 307.83333333333394) rotate(0 46.852614806769395 -16.796725049987458)"><path d="M72.48 -12.95 C74.06 -18.44, 80.05 -22.54, 95.85 -31.77 M71.65 -15.31 C78.26 -19.73, 85.1 -26.6, 94.43 -33.57" stroke="#000000" stroke-width="1" fill="none"></path></g><g transform="translate(979.3333333333334 307.83333333333394) rotate(0 46.852614806769395 -16.796725049987458)"><path d="M65.55 -32.26 C68.71 -33.53, 76.23 -33.37, 95.85 -31.77 M64.72 -34.62 C73.6 -33.04, 82.6 -33.89, 94.43 -33.57" stroke="#000000" stroke-width="1" fill="none"></path></g></g><g transform="translate(939.3333333333334 261.83333333333394) rotate(0 49 12.5)"><text x="49" y="18" font-family="Virgil, Segoe UI Emoji" font-size="20px" fill="#000000" text-anchor="middle" style="white-space: pre;" direction="ltr">X Release</text></g><g stroke-linecap="round" transform="translate(1078.8333333333335 235.83333333333394) rotate(0 59.75 33.75)"><path d="M34.11 3.42 C42.83 0.49, 56.48 -0.19, 66.78 0.51 C77.07 1.22, 87.77 3.81, 95.88 7.64 C104 11.47, 111.84 17.75, 115.46 23.48 C119.08 29.2, 120.02 36.09, 117.61 41.96 C115.2 47.84, 108.5 54.59, 100.99 58.73 C93.48 62.87, 82.96 65.74, 72.55 66.81 C62.15 67.87, 48.76 67.37, 38.57 65.11 C28.37 62.85, 17.67 58.06, 11.37 53.25 C5.07 48.44, 1.49 42.23, 0.74 36.26 C0 30.3, 2.03 22.9, 6.89 17.46 C11.75 12.01, 24.83 6.27, 29.9 3.6 C34.97 0.93, 35.16 1.8, 37.3 1.45 C39.45 1.1, 42.29 0.81, 42.76 1.5 M76.85 1.54 C86.71 2.95, 96.09 7.22, 103.28 11.65 C110.47 16.07, 118 22.28, 119.99 28.08 C121.98 33.87, 119.81 40.67, 115.22 46.42 C110.63 52.17, 101.26 58.99, 92.46 62.59 C83.65 66.18, 73.01 67.78, 62.39 68 C51.77 68.22, 37.88 67.01, 28.75 63.91 C19.62 60.81, 12.39 54.92, 7.62 49.39 C2.85 43.86, -0.7 36.7, 0.13 30.74 C0.97 24.78, 6.34 18.4, 12.62 13.63 C18.9 8.86, 27.85 4.49, 37.81 2.12 C47.77 -0.25, 66.07 -0.6, 72.37 -0.58 C78.66 -0.55, 75.13 1.69, 75.6 2.29 C76.08 2.89, 75.49 2.44, 75.23 3.02" stroke="#000000" stroke-width="4" fill="none"></path></g><g transform="translate(1105.0833333333335 244.58333333333394) rotate(0 33.5 25)"><text x="33.5" y="18" font-family="Virgil, Segoe UI Emoji" font-size="20px" fill="#000000" text-anchor="middle" style="white-space: pre;" direction="ltr">Reset</text><text x="33.5" y="43" font-family="Virgil, Segoe UI Emoji" font-size="20px" fill="#000000" text-anchor="middle" style="white-space: pre;" direction="ltr">X-Zero</text></g><g stroke-linecap="round"><g transform="translate(1198.8333333333335 291.83333333333394) rotate(0 33.501506232004544 35.89732509465887)"><path d="M0.01 -0.07 C11.61 12.14, 57.01 60.73, 68.44 72.94 M-1.44 -1.15 C10.05 10.72, 55.69 58.99, 67.2 71.06" stroke="#000000" stroke-width="1" fill="none"></path></g><g transform="translate(1198.8333333333335 291.83333333333394) rotate(0 33.501506232004544 35.89732509465887)"><path d="M40.23 56.74 C46.59 59.77, 52.59 63.68, 66.69 70.04 M39.71 58.47 C46.33 61.08, 53.3 63.71, 66.61 70.63" stroke="#000000" stroke-width="1" fill="none"></path></g><g transform="translate(1198.8333333333335 291.83333333333394) rotate(0 33.501506232004544 35.89732509465887)"><path d="M55.12 42.61 C58.37 48.55, 61.3 55.38, 66.69 70.04 M54.6 44.34 C57.66 50.18, 61.13 56.12, 66.61 70.63" stroke="#000000" stroke-width="1" fill="none"></path></g></g><g stroke-linecap="round"><g transform="translate(1193.7882096945336 437.5116734002162) rotate(0 -189.4688975567367 0.3912184416578839)"><path d="M-0.37 -0.74 C-63.7 -0.75, -316.83 -0.25, -380.24 -0.13 M1.64 1.49 C-61.72 1.64, -316.76 1.19, -380.58 1.12" stroke="#000000" stroke-width="1" fill="none"></path></g><g transform="translate(1193.7882096945336 437.5116734002162) rotate(0 -189.4688975567367 0.3912184416578839)"><path d="M-353.6 -7.16 C-361.12 -5.38, -368.73 -2.07, -379.99 2.45 M-351.81 -9.76 C-364.33 -5.9, -375.02 -0.18, -380.69 0.52" stroke="#000000" stroke-width="1" fill="none"></path></g><g transform="translate(1193.7882096945336 437.5116734002162) rotate(0 -189.4688975567367 0.3912184416578839)"><path d="M-353.63 13.36 C-361.13 9.44, -368.73 7.05, -379.99 2.45 M-351.83 10.76 C-364.29 6.55, -374.97 4.18, -380.69 0.52" stroke="#000000" stroke-width="1" fill="none"></path></g></g><g stroke-linecap="round" transform="translate(639.5833333333334 391.33333333333394) rotate(0 82.75 50)"><path d="M64.83 1.58 C76.29 -0.57, 91.73 0.55, 103.82 2.48 C115.91 4.41, 127.92 8.37, 137.37 13.18 C146.82 17.98, 156.03 24.45, 160.5 31.31 C164.97 38.18, 165.72 46.56, 164.19 54.38 C162.67 62.21, 158.22 71.83, 151.37 78.27 C144.52 84.71, 134.18 89.47, 123.07 93.02 C111.96 96.56, 97.46 99.21, 84.7 99.52 C71.94 99.84, 57.85 98.09, 46.51 94.92 C35.17 91.74, 24.21 86.63, 16.65 80.47 C9.1 74.32, 3.38 65.63, 1.18 57.97 C-1.02 50.32, -0.23 41.85, 3.45 34.56 C7.12 27.28, 14.18 19.62, 23.24 14.26 C32.3 8.9, 49.19 4.63, 57.81 2.4 C66.42 0.17, 70.42 1.26, 74.91 0.88 C79.4 0.5, 84.79 -0.61, 84.73 0.1 M79.59 -1.15 C91.66 -2.28, 107.54 1.32, 119.33 4.93 C131.12 8.54, 142.92 14.31, 150.31 20.5 C157.71 26.69, 161.74 34.86, 163.67 42.07 C165.6 49.28, 165.67 56.73, 161.88 63.79 C158.1 70.86, 149.75 78.76, 140.96 84.45 C132.18 90.14, 121.43 95.33, 109.17 97.95 C96.92 100.58, 80.21 101.35, 67.45 100.21 C54.69 99.06, 42.55 95.89, 32.62 91.08 C22.68 86.27, 13.31 78.26, 7.82 71.33 C2.34 64.41, -0.75 57.09, -0.3 49.54 C0.14 41.98, 4.52 32.92, 10.49 26.01 C16.46 19.09, 25.26 12.44, 35.54 8.04 C45.83 3.64, 64.51 1.17, 72.21 -0.38 C79.92 -1.93, 80.37 -1.39, 81.76 -1.28 C83.14 -1.16, 80.75 -0.74, 80.52 0.3" stroke="#000000" stroke-width="1" fill="none"></path></g><g transform="translate(928.5833333333334 412.33333333333394) rotate(0 90.5 12.5)"><text x="90.5" y="18" font-family="Virgil, Segoe UI Emoji" font-size="20px" fill="#000000" text-anchor="middle" style="white-space: pre;" direction="ltr">BBumps + Y Press</text></g><g transform="translate(686.8333333333334 419.33333333333394) rotate(0 42 25)"><text x="42" y="18" font-family="Virgil, Segoe UI Emoji" font-size="20px" fill="#000000" text-anchor="middle" style="white-space: pre;" direction="ltr">Wait for</text><text x="42" y="43" font-family="Virgil, Segoe UI Emoji" font-size="20px" fill="#000000" text-anchor="middle" style="white-space: pre;" direction="ltr">ResetY</text></g><g stroke-linecap="round"><g transform="translate(812.2959118375903 445.40508752513153) rotate(0 87.81688481384242 21.568016790339698)"><path d="M0.58 -0.41 C29.75 7.15, 146.95 37.14, 176.21 44.8 M-0.58 -1.67 C28.41 5.56, 146.32 35.29, 175.72 42.87" stroke="#000000" stroke-width="1" fill="none"></path></g><g transform="translate(812.2959118375903 445.40508752513153) rotate(0 87.81688481384242 21.568016790339698)"><path d="M145.19 47.29 C158.31 45.85, 171.43 42.76, 176.88 44 M145.45 46.56 C152.77 44.84, 158.99 44.31, 174.89 42.59" stroke="#000000" stroke-width="1" fill="none"></path></g><g transform="translate(812.2959118375903 445.40508752513153) rotate(0 87.81688481384242 21.568016790339698)"><path d="M150.25 27.4 C161.27 33.88, 172.39 38.67, 176.88 44 M150.51 26.67 C156.48 29.56, 161.52 33.68, 174.89 42.59" stroke="#000000" stroke-width="1" fill="none"></path></g></g><g transform="translate(834.0833333333334 481.33333333333394) rotate(0 48 12.5)"><text x="48" y="18" font-family="Virgil, Segoe UI Emoji" font-size="20px" fill="#000000" text-anchor="middle" style="white-space: pre;" direction="ltr">Y Release</text></g><g stroke-linecap="round" transform="translate(971.5833333333334 479.33333333333394) rotate(0 59.75 33.75)"><path d="M79.71 2.39 C89.31 3.71, 99.33 7.29, 105.74 11.83 C112.14 16.37, 116.76 23.53, 118.16 29.64 C119.55 35.75, 118.73 43.16, 114.1 48.5 C109.47 53.83, 99.64 58.63, 90.35 61.66 C81.05 64.69, 68.96 66.68, 58.35 66.67 C47.74 66.66, 35.48 64.81, 26.66 61.62 C17.84 58.44, 9.89 53.02, 5.42 47.54 C0.94 42.06, -1.55 34.76, -0.17 28.73 C1.2 22.69, 6.74 15.72, 13.68 11.32 C20.63 6.93, 31.21 3.92, 41.5 2.38 C51.78 0.84, 67.43 1.67, 75.42 2.11 C83.4 2.54, 85.99 4.05, 89.4 5 C92.81 5.95, 96.49 7.44, 95.89 7.8 M57.97 0.47 C67.89 0.34, 81.82 3.42, 91.16 6.4 C100.5 9.39, 109.31 13.12, 114.02 18.38 C118.74 23.64, 121.01 31.9, 119.46 37.96 C117.91 44.02, 111.66 49.89, 104.73 54.74 C97.8 59.59, 87.69 65.34, 77.87 67.06 C68.05 68.79, 55.87 66.81, 45.81 65.09 C35.76 63.36, 24.8 60.88, 17.54 56.7 C10.29 52.52, 4.62 45.91, 2.29 40.02 C-0.04 34.12, -0.22 26.85, 3.56 21.33 C7.34 15.81, 16.32 10.62, 24.97 6.9 C33.63 3.19, 49.84 0.35, 55.46 -0.97 C61.08 -2.29, 58.19 -1.48, 58.68 -1.03 C59.18 -0.58, 58.57 1.04, 58.44 1.73" stroke="#000000" stroke-width="4" fill="none"></path></g><g transform="translate(999.3333333333334 490.58333333333394) rotate(0 32.5 25)"><text x="32.5" y="18" font-family="Virgil, Segoe UI Emoji" font-size="20px" fill="#000000" text-anchor="middle" style="white-space: pre;" direction="ltr">Reset</text><text x="32.5" y="43" font-family="Virgil, Segoe UI Emoji" font-size="20px" fill="#000000" text-anchor="middle" style="white-space: pre;" direction="ltr">Y-Zero</text></g><g stroke-linecap="round"><g transform="translate(1075.2465417225244 481.4695524908757) rotate(0 63.24988448911188 -17.506011546843865)"><path d="M0.79 1.12 C21.77 -4.67, 105.58 -28.21, 126.75 -34.38 M-0.25 0.67 C20.47 -5.5, 104.35 -30.2, 125.62 -36.13" stroke="#000000" stroke-width="1" fill="none"></path></g><g transform="translate(1075.2465417225244 481.4695524908757) rotate(0 63.24988448911188 -17.506011546843865)"><path d="M103.24 -19.06 C111.49 -24.06, 118.02 -33.41, 123.65 -36.97 M100.49 -18.92 C109.54 -25.14, 119.01 -31.27, 125.52 -36.91" stroke="#000000" stroke-width="1" fill="none"></path></g><g transform="translate(1075.2465417225244 481.4695524908757) rotate(0 63.24988448911188 -17.506011546843865)"><path d="M97.56 -38.78 C107.98 -36.49, 116.62 -38.52, 123.65 -36.97 M94.81 -38.64 C105.94 -37.52, 117.51 -36.36, 125.52 -36.91" stroke="#000000" stroke-width="1" fill="none"></path></g></g><g stroke-linecap="round"><g transform="translate(1228.8333333333335 452.83333333333394) rotate(0 -216.24228951277212 74.12297255626396)"><path d="M0.65 -0.54 C-30.21 22.26, -112.19 113.09, -184.34 136.51 C-256.49 159.92, -391.08 139.18, -432.24 139.93 M-0.47 1.79 C-31.46 24.73, -112.57 114.29, -184.68 137.52 C-256.79 160.76, -392.13 140.97, -433.13 141.21" stroke="#000000" stroke-width="1" fill="none"></path></g><g transform="translate(1228.8333333333335 452.83333333333394) rotate(0 -216.24228951277212 74.12297255626396)"><path d="M-405.28 134.59 C-416.6 135.55, -425.61 140.23, -431.46 139.34 M-404.13 133.63 C-412.01 134.67, -417.6 136.44, -433.98 140.33" stroke="#000000" stroke-width="1" fill="none"></path></g><g transform="translate(1228.8333333333335 452.83333333333394) rotate(0 -216.24228951277212 74.12297255626396)"><path d="M-406.51 155.07 C-417.33 148.51, -425.89 145.68, -431.46 139.34 M-405.36 154.12 C-413.14 150.25, -418.43 147.12, -433.98 140.33" stroke="#000000" stroke-width="1" fill="none"></path></g></g><g transform="translate(828.3333333333334 560.8333333333339) rotate(0 97 12.5)"><text x="97" y="18" font-family="Virgil, Segoe UI Emoji" font-size="20px" fill="#000000" text-anchor="middle" style="white-space: pre;" direction="ltr">LBump+Start Press</text></g><g stroke-linecap="round" transform="translate(652.3333333333334 535.8333333333339) rotate(0 73.25 45.25)"><path d="M97.19 2.92 C108.28 4.47, 120.74 8.9, 128.5 14.28 C136.27 19.65, 141.33 28.05, 143.79 35.17 C146.24 42.28, 146.25 50.15, 143.21 56.97 C140.18 63.79, 133.8 70.71, 125.58 76.07 C117.35 81.44, 105.35 86.94, 93.87 89.14 C82.39 91.34, 68.35 91.03, 56.7 89.27 C45.05 87.52, 32.55 83.27, 23.95 78.6 C15.36 73.93, 8.97 67.92, 5.11 61.27 C1.25 54.62, -1.03 46.02, 0.8 38.69 C2.64 31.36, 8.92 23.24, 16.13 17.29 C23.34 11.35, 33.25 5.74, 44.05 3.01 C54.84 0.29, 70.79 0.71, 80.88 0.95 C90.97 1.18, 99.69 3.35, 104.59 4.4 C109.5 5.45, 111.04 6.59, 110.31 7.25 M97.02 1.74 C107.89 3.05, 119.9 8.84, 127.99 14.24 C136.09 19.63, 142.83 27.13, 145.59 34.11 C148.35 41.1, 148.14 48.95, 144.56 56.15 C140.99 63.35, 132.85 71.9, 124.16 77.31 C115.46 82.71, 103.79 86.61, 92.41 88.55 C81.03 90.49, 67.1 90.41, 55.86 88.95 C44.62 87.48, 33.33 84.69, 24.96 79.76 C16.59 74.83, 9.53 66.5, 5.65 59.4 C1.77 52.3, -0.08 44.06, 1.68 37.16 C3.45 30.25, 9.17 23.6, 16.23 17.96 C23.29 12.31, 33.2 6.31, 44.03 3.31 C54.85 0.31, 72.16 -0.1, 81.17 -0.05 C90.19 0, 95.62 3.04, 98.14 3.6 C100.65 4.17, 96.62 2.99, 96.26 3.32" stroke="#000000" stroke-width="1" fill="none"></path></g><g transform="translate(683.5833333333334 556.0833333333339) rotate(0 42 25)"><text x="42" y="18" font-family="Virgil, Segoe UI Emoji" font-size="20px" fill="#000000" text-anchor="middle" style="white-space: pre;" direction="ltr">Wait for</text><text x="42" y="43" font-family="Virgil, Segoe UI Emoji" font-size="20px" fill="#000000" text-anchor="middle" style="white-space: pre;" direction="ltr">Disable</text></g><g transform="translate(425.16666666666674 556.166666666667) rotate(0 71.5 12.5)"><text x="71.5" y="18" font-family="Virgil, Segoe UI Emoji" font-size="20px" fill="#000000" text-anchor="middle" style="white-space: pre;" direction="ltr">Start Release</text></g><g stroke-linecap="round"><g transform="translate(1263.8333338065236 473.83333333333485) rotate(0 -98.61638620583562 96.06191176911125)"><path d="M2.48 -0.92 C-5.52 22.86, -11.8 109.64, -45.61 141.77 C-79.43 173.89, -174.55 183.49, -200.4 191.82 M4.14 1.21 C-3.89 24.75, -12.18 108.13, -46.44 140.11 C-80.69 172.08, -175.65 184.28, -201.37 193.04" stroke="#000000" stroke-width="1" fill="none"></path></g><g transform="translate(1263.8333338065236 473.83333333333485) rotate(0 -98.61638620583562 96.06191176911125)"><path d="M-177.91 176.85 C-180.12 178.95, -186.97 181.84, -201.85 192.28 M-176.62 175.47 C-181.52 180.73, -187.35 183.96, -201 193.4" stroke="#000000" stroke-width="1" fill="none"></path></g><g transform="translate(1263.8333338065236 473.83333333333485) rotate(0 -98.61638620583562 96.06191176911125)"><path d="M-173.1 196.8 C-176.13 194.8, -183.96 193.63, -201.85 192.28 M-171.81 195.42 C-177.71 196.19, -184.63 194.91, -201 193.4" stroke="#000000" stroke-width="1" fill="none"></path></g></g><g transform="translate(1109.333333333333 602.3333333333348) rotate(0 60.5 37.5)"><text x="60.5" y="18" font-family="Virgil, Segoe UI Emoji" font-size="20px" fill="#000000" text-anchor="middle" style="white-space: pre;" direction="ltr">BBumps</text><text x="60.5" y="43" font-family="Virgil, Segoe UI Emoji" font-size="20px" fill="#000000" text-anchor="middle" style="white-space: pre;" direction="ltr">+</text><text x="60.5" y="68" font-family="Virgil, Segoe UI Emoji" font-size="20px" fill="#000000" text-anchor="middle" style="white-space: pre;" direction="ltr">Start Press</text></g><g stroke-linecap="round" transform="translate(947.8333333333329 652.8333333333348) rotate(0 54.25 36)"><path d="M76.37 3.51 C85.15 5.62, 93.52 11.11, 98.85 16.42 C104.18 21.73, 108.33 28.72, 108.37 35.37 C108.42 42.02, 104.63 50.58, 99.14 56.32 C93.64 62.05, 84.57 67.35, 75.41 69.78 C66.26 72.2, 53.9 72.23, 44.21 70.87 C34.52 69.51, 24.41 65.91, 17.28 61.63 C10.15 57.35, 3.62 51.51, 1.42 45.18 C-0.77 38.86, 0.79 29.83, 4.11 23.68 C7.44 17.52, 13.63 12.24, 21.37 8.26 C29.11 4.27, 41.35 0.52, 50.57 -0.23 C59.79 -0.98, 71.98 2.8, 76.69 3.75 C81.4 4.69, 79 5.09, 78.83 5.44 M72.51 2.4 C81.55 3.97, 90.83 9.38, 97.02 14.39 C103.21 19.4, 108.99 25.84, 109.65 32.45 C110.31 39.06, 105.98 48.27, 100.98 54.03 C95.99 59.79, 88.34 63.98, 79.68 67.02 C71.03 70.06, 59.09 72.61, 49.05 72.27 C39.02 71.93, 27.07 69.28, 19.48 64.99 C11.89 60.7, 6.65 53.3, 3.52 46.55 C0.38 39.8, -1.72 30.57, 0.68 24.51 C3.09 18.44, 9.97 14.37, 17.97 10.15 C25.96 5.92, 39.42 0.73, 48.65 -0.84 C57.89 -2.4, 69.46 0.1, 73.4 0.75 C77.34 1.41, 72.74 2.18, 72.31 3.11" stroke="#000000" stroke-width="1" fill="none"></path></g><g transform="translate(960.0833333333329 663.8333333333348) rotate(0 42 25)"><text x="42" y="18" font-family="Virgil, Segoe UI Emoji" font-size="20px" fill="#000000" text-anchor="middle" style="white-space: pre;" direction="ltr">Wait for</text><text x="42" y="43" font-family="Virgil, Segoe UI Emoji" font-size="20px" fill="#000000" text-anchor="middle" style="white-space: pre;" direction="ltr">ResetZ</text></g><g stroke-linecap="round"><g transform="translate(942.3333333333329 688.3333333333348) rotate(0 -53.296420174408695 -3.866840090975188)"><path d="M-0.96 -0.34 C-18.67 -1.47, -89.7 -6.45, -107.33 -7.4 M0.73 -1.56 C-16.5 -2.47, -86.99 -5.01, -105.05 -6.07" stroke="#000000" stroke-width="1" fill="none"></path></g><g transform="translate(942.3333333333329 688.3333333333348) rotate(0 -53.296420174408695 -3.866840090975188)"><path d="M-76.98 -16.4 C-83.18 -13.77, -86.97 -13.1, -104.67 -6.44 M-76.75 -14.93 C-85.37 -12.22, -96.64 -7.92, -105.38 -6.46" stroke="#000000" stroke-width="1" fill="none"></path></g><g transform="translate(942.3333333333329 688.3333333333348) rotate(0 -53.296420174408695 -3.866840090975188)"><path d="M-77.92 4.1 C-83.82 2.4, -87.41 -1.26, -104.67 -6.44 M-77.69 5.57 C-86.07 1.21, -97.02 -1.56, -105.38 -6.46" stroke="#000000" stroke-width="1" fill="none"></path></g></g><g stroke-linecap="round" transform="translate(731.3333333333329 654.3333333333348) rotate(0 50.25 36)"><path d="M72.65 4.24 C81.21 6.5, 90.33 11.76, 94.79 17.53 C99.26 23.3, 100.22 31.96, 99.45 38.86 C98.69 45.76, 95.91 53.76, 90.21 58.96 C84.51 64.15, 74.34 68.18, 65.27 70.03 C56.2 71.88, 44.74 71.88, 35.78 70.04 C26.81 68.19, 17.3 64.18, 11.47 58.95 C5.64 53.72, 1.61 45.41, 0.8 38.68 C-0.01 31.94, 1.99 24.52, 6.6 18.54 C11.21 12.57, 19.88 5.71, 28.45 2.84 C37.02 -0.03, 50.33 0.99, 58 1.32 C65.67 1.65, 71.12 3.81, 74.48 4.84 C77.84 5.86, 78.35 6.82, 78.17 7.46 M52.46 -0.47 C61.56 -1.02, 72.55 1.99, 80.13 6.21 C87.72 10.43, 94.69 18.59, 97.98 24.86 C101.27 31.13, 102.3 37.58, 99.87 43.84 C97.43 50.09, 90.47 57.77, 83.36 62.39 C76.26 67.02, 66.56 70.43, 57.26 71.57 C47.95 72.72, 35.82 72.09, 27.53 69.24 C19.24 66.38, 12.22 60.33, 7.54 54.45 C2.86 48.57, -1.14 40.73, -0.57 33.95 C0 27.17, 4.75 19.31, 10.96 13.75 C17.18 8.2, 29.63 2.85, 36.72 0.62 C43.8 -1.61, 50.91 0.32, 53.47 0.37 C56.02 0.41, 52.39 0.11, 52.05 0.9" stroke="#000000" stroke-width="4" fill="none"></path></g><g transform="translate(859.8333333333329 660.8333333333348) rotate(0 38 25)"><text x="38" y="18" font-family="Virgil, Segoe UI Emoji" font-size="20px" fill="#000000" text-anchor="middle" style="white-space: pre;" direction="ltr">Start</text><text x="38" y="43" font-family="Virgil, Segoe UI Emoji" font-size="20px" fill="#000000" text-anchor="middle" style="white-space: pre;" direction="ltr">Release</text></g><g transform="translate(746.0833333333329 665.3333333333348) rotate(0 35.5 25)"><text x="35.5" y="18" font-family="Virgil, Segoe UI Emoji" font-size="20px" fill="#000000" text-anchor="middle" style="white-space: pre;" direction="ltr">Reset</text><text x="35.5" y="43" font-family="Virgil, Segoe UI Emoji" font-size="20px" fill="#000000" text-anchor="middle" style="white-space: pre;" direction="ltr">Z-Zero</text></g><g stroke-linecap="round"><g transform="translate(796.3333333333329 734.3333333333348) rotate(0 244.95032991442838 -116.55279213908614)"><path d="M0.32 0.3 C49.59 3.78, 219.48 31.53, 296.04 19.93 C372.59 8.33, 427.2 -23.35, 459.66 -69.3 C492.11 -115.25, 485.49 -224.67, 490.76 -255.78 M-0.98 -0.59 C48.2 2.65, 218.45 30.07, 295.63 18.29 C372.81 6.51, 429.57 -25.76, 462.11 -71.28 C494.65 -116.8, 486.24 -224.06, 490.88 -254.82" stroke="#000000" stroke-width="1" fill="none"></path></g><g transform="translate(796.3333333333329 734.3333333333348) rotate(0 244.95032991442838 -116.55279213908614)"><path d="M500.3 -224.45 C498.62 -237.03, 495.29 -245.5, 490.41 -254.35 M498.94 -225.46 C498.45 -232.93, 494.53 -241.66, 491.21 -254.1" stroke="#000000" stroke-width="1" fill="none"></path></g><g transform="translate(796.3333333333329 734.3333333333348) rotate(0 244.95032991442838 -116.55279213908614)"><path d="M479.8 -225.42 C484.89 -237.73, 488.34 -245.88, 490.41 -254.35 M478.44 -226.43 C483.28 -233.74, 484.7 -242.21, 491.21 -254.1" stroke="#000000" stroke-width="1" fill="none"></path></g></g><g transform="translate(619.8627450980388 662.8333333333348) rotate(0 30.5 25)"><text x="30.5" y="18" font-family="Virgil, Segoe UI Emoji" font-size="20px" fill="#000000" text-anchor="middle" style="white-space: pre;" direction="ltr">Select</text><text x="30.5" y="43" font-family="Virgil, Segoe UI Emoji" font-size="20px" fill="#000000" text-anchor="middle" style="white-space: pre;" direction="ltr">Press</text></g><g stroke-linecap="round" transform="translate(687.3333333333329 765.3333333333348) rotate(0 68 42.75)"><path d="M84.45 1.69 C95.16 2.59, 107.52 6.83, 115.83 11.85 C124.15 16.86, 131.33 24.82, 134.32 31.8 C137.3 38.77, 136.58 46.81, 133.74 53.69 C130.91 60.56, 125.07 67.95, 117.28 73.05 C109.5 78.15, 98.02 82.31, 87.02 84.29 C76.02 86.27, 62.44 86.93, 51.31 84.95 C40.18 82.98, 28.51 77.44, 20.23 72.43 C11.96 67.42, 4.58 61.57, 1.65 54.89 C-1.28 48.21, -0.22 39.46, 2.64 32.38 C5.5 25.3, 10.94 17.43, 18.82 12.4 C26.69 7.38, 38.78 4.23, 49.89 2.25 C61 0.27, 79.24 0.55, 85.48 0.51 C91.73 0.46, 86.53 1.45, 87.37 1.99 C88.22 2.52, 90.81 3.09, 90.54 3.74 M73.98 0.31 C84.4 0.36, 96.67 3.93, 105.75 8.19 C114.83 12.45, 123.47 19.62, 128.48 25.87 C133.48 32.12, 136.59 38.63, 135.75 45.67 C134.92 52.71, 129.83 62.08, 123.46 68.12 C117.1 74.15, 107.96 79.21, 97.56 81.88 C87.17 84.55, 72.59 84.79, 61.1 84.15 C49.62 83.51, 37.88 81.77, 28.65 78.04 C19.41 74.31, 10.52 68.19, 5.68 61.75 C0.84 55.32, -1.44 46.75, -0.39 39.43 C0.66 32.12, 5.35 23.71, 12 17.85 C18.65 11.98, 29.08 7.25, 39.5 4.23 C49.92 1.2, 68.91 0.53, 74.54 -0.3 C80.18 -1.13, 73.5 -0.77, 73.29 -0.74 C73.09 -0.7, 73.34 -1.03, 73.33 -0.09" stroke="#000000" stroke-width="1" fill="none"></path></g><g transform="translate(715.8333333333329 779.0833333333348) rotate(0 41.5 25)"><text x="41.5" y="18" font-family="Virgil, Segoe UI Emoji" font-size="20px" fill="#000000" text-anchor="middle" style="white-space: pre;" direction="ltr">Maybe</text><text x="41.5" y="43" font-family="Virgil, Segoe UI Emoji" font-size="20px" fill="#000000" text-anchor="middle" style="white-space: pre;" direction="ltr">Go Home</text></g><g stroke-linecap="round"><g transform="translate(822.4612406935263 834.8259109103958) rotate(0 100.37043539552155 0.9994385171426075)"><path d="M0.24 -0.21 C34.08 0.31, 168.31 1.69, 201.83 2.06 M-1.09 -1.36 C32.64 -0.58, 166.46 2.62, 200.6 3.36" stroke="#000000" stroke-width="1" fill="none"></path></g><g transform="translate(822.4612406935263 834.8259109103958) rotate(0 100.37043539552155 0.9994385171426075)"><path d="M171.84 12.07 C177.26 9.33, 182.9 10.75, 201.41 4.63 M172.66 13.38 C178.27 10.52, 185.66 7.9, 199.97 3.58" stroke="#000000" stroke-width="1" fill="none"></path></g><g transform="translate(822.4612406935263 834.8259109103958) rotate(0 100.37043539552155 0.9994385171426075)"><path d="M172.31 -8.44 C177.45 -7.04, 183 -1.47, 201.41 4.63 M173.13 -7.14 C178.71 -5.05, 185.99 -2.72, 199.97 3.58" stroke="#000000" stroke-width="1" fill="none"></path></g></g><g transform="translate(836.3333333333329 802.3333333333348) rotate(0 73.5 12.5)"><text x="73.5" y="18" font-family="Virgil, Segoe UI Emoji" font-size="20px" fill="#000000" text-anchor="middle" style="white-space: pre;" direction="ltr">Select Release</text></g><g transform="translate(827.3333333333329 840.8333333333348) rotate(0 71.5 12.5)"><text x="71.5" y="18" font-family="Virgil, Segoe UI Emoji" font-size="20px" fill="#000000" text-anchor="middle" style="white-space: pre;" direction="ltr">Start Release</text></g><g stroke-linecap="round" transform="translate(1025.833333333333 798.3333333333348) rotate(0 61 36.75)"><path d="M84.31 3.27 C94.1 5, 105.62 9.79, 111.92 15.15 C118.23 20.51, 121.61 28.92, 122.16 35.42 C122.71 41.92, 120.53 48.7, 115.25 54.13 C109.97 59.56, 99.78 64.89, 90.47 67.99 C81.16 71.1, 70.03 72.74, 59.4 72.75 C48.78 72.77, 35.76 71.45, 26.73 68.09 C17.69 64.73, 9.71 58.81, 5.2 52.62 C0.69 46.43, -1.65 37.58, -0.33 30.95 C0.99 24.33, 6.22 17.84, 13.1 12.86 C19.99 7.89, 30.76 3.2, 40.99 1.12 C51.22 -0.95, 66.05 -0.11, 74.49 0.4 C82.92 0.91, 87.65 3.01, 91.58 4.19 C95.51 5.37, 98.68 6.68, 98.06 7.48 M35.68 3.96 C44.23 1.22, 56.83 0.61, 67.42 1.1 C78.01 1.58, 90.48 3.06, 99.22 6.9 C107.96 10.74, 116.06 17.96, 119.88 24.12 C123.69 30.29, 124.55 37.32, 122.12 43.88 C119.69 50.43, 113.16 58.6, 105.29 63.47 C97.43 68.33, 85.43 71.86, 74.92 73.06 C64.41 74.25, 52.23 72.85, 42.23 70.64 C32.22 68.44, 21.76 64.58, 14.87 59.82 C7.99 55.07, 2.45 48.45, 0.89 42.11 C-0.67 35.77, 1.53 27.87, 5.52 21.8 C9.5 15.73, 19.86 8.56, 24.82 5.68 C29.79 2.8, 33.58 4.86, 35.31 4.52 C37.04 4.19, 34.7 3.25, 35.2 3.66" stroke="#000000" stroke-width="4" fill="none"></path></g><g transform="translate(1063.833333333333 810.0833333333348) rotate(0 23 25)"><text x="23" y="18" font-family="Virgil, Segoe UI Emoji" font-size="20px" fill="#000000" text-anchor="middle" style="white-space: pre;" direction="ltr">Go</text><text x="23" y="43" font-family="Virgil, Segoe UI Emoji" font-size="20px" fill="#000000" text-anchor="middle" style="white-space: pre;" direction="ltr">Home</text></g><g stroke-linecap="round"><g transform="translate(1154.333333333333 828.8333333333348) rotate(0 77.41675905324519 -175.97374080158767)"><path d="M-0.48 0.96 C19.95 -20.78, 96.98 -71.38, 122.95 -130.36 C148.91 -189.34, 150.09 -315.89, 155.31 -352.91 M1.47 0.42 C21.8 -21.2, 96.91 -70.53, 122.5 -129.28 C148.08 -188.02, 149.66 -315.02, 154.97 -352.07" stroke="#000000" stroke-width="1" fill="none"></path></g><g transform="translate(1154.333333333333 828.8333333333348) rotate(0 77.41675905324519 -175.97374080158767)"><path d="M164.41 -321.53 C158.78 -331.32, 156.13 -342.59, 154.24 -353.37 M162.72 -323.81 C160.59 -332.71, 157.23 -341.67, 155.22 -351.3" stroke="#000000" stroke-width="1" fill="none"></path></g><g transform="translate(1154.333333333333 828.8333333333348) rotate(0 77.41675905324519 -175.97374080158767)"><path d="M143.97 -323.26 C145.07 -332.4, 149.14 -343.1, 154.24 -353.37 M142.28 -325.54 C146.68 -333.9, 149.85 -342.3, 155.22 -351.3" stroke="#000000" stroke-width="1" fill="none"></path></g></g><g stroke-linecap="round"><g transform="translate(960.3039215686287 662.8333333333348) rotate(0 -136.04136805221316 35.22071780578682)"><path d="M0.14 -0.69 C-17.55 -4.84, -62.13 -23.72, -105.99 -25.29 C-149.84 -26.85, -238.75 -30.35, -262.98 -10.1 C-287.21 10.15, -253.31 78.31, -251.34 96.21 M-1.25 1.57 C-19.12 -2.43, -63.2 -22.5, -107 -24.27 C-150.81 -26.04, -240.08 -29.26, -264.09 -9.05 C-288.1 11.15, -252.97 79.13, -251.04 96.97" stroke="#000000" stroke-width="1" fill="none"></path></g><g transform="translate(960.3039215686287 662.8333333333348) rotate(0 -136.04136805221316 35.22071780578682)"><path d="M-270.22 72.77 C-265.18 79.34, -258.77 88.07, -252.16 97.4 M-268.12 73.1 C-263.55 80.27, -257.1 89.39, -251.17 97.5" stroke="#000000" stroke-width="1" fill="none"></path></g><g transform="translate(960.3039215686287 662.8333333333348) rotate(0 -136.04136805221316 35.22071780578682)"><path d="M-250.58 66.79 C-251.69 75.25, -251.39 85.84, -252.16 97.4 M-248.49 67.12 C-250.51 76.37, -250.68 87.51, -251.17 97.5" stroke="#000000" stroke-width="1" fill="none"></path></g></g><g stroke-linecap="round"><g transform="translate(1323.4771241830063 477.44117647058965) rotate(0 -212.11178775392472 236.4823808553952)"><path d="M0.41 -0.11 C-2.82 41.93, 14.73 175.31, -20.48 251.79 C-55.69 328.28, -143.24 424.21, -210.85 458.8 C-278.47 493.4, -390.15 459.37, -426.18 459.36 M-0.84 -1.21 C-4.12 41.05, 13.61 176.87, -21.42 253.22 C-56.45 329.57, -143.58 422.31, -211.02 456.88 C-278.45 491.45, -390.29 460.29, -426.03 460.65" stroke="#000000" stroke-width="1" fill="none"></path></g><g transform="translate(1323.4771241830063 477.44117647058965) rotate(0 -212.11178775392472 236.4823808553952)"><path d="M-397.05 453.64 C-403.19 457.05, -407.46 456.27, -425.44 458.87 M-397.42 452.8 C-405.88 455.88, -413.96 456.27, -425.8 460.1" stroke="#000000" stroke-width="1" fill="none"></path></g><g transform="translate(1323.4771241830063 477.44117647058965) rotate(0 -212.11178775392472 236.4823808553952)"><path d="M-399.35 474.03 C-404.94 473.28, -408.74 468.34, -425.44 458.87 M-399.71 473.19 C-407.49 470.61, -414.93 465.31, -425.8 460.1" stroke="#000000" stroke-width="1" fill="none"></path></g></g><g transform="translate(963.9771241830064 895.9411764705897) rotate(0 62.5 25)"><text x="62.5" y="18" font-family="Virgil, Segoe UI Emoji" font-size="20px" fill="#000000" text-anchor="middle" style="white-space: pre;" direction="ltr">BBumps</text><text x="62.5" y="43" font-family="Virgil, Segoe UI Emoji" font-size="20px" fill="#000000" text-anchor="middle" style="white-space: pre;" direction="ltr">Select Press</text></g><g stroke-linecap="round" transform="translate(739.9771241830064 879.4411764705897) rotate(0 77 50.75)"><path d="M111.3 5.86 C122.03 8.7, 131.56 15.07, 138.51 21.52 C145.46 27.97, 151.04 36.68, 153 44.57 C154.97 52.46, 154.43 61.45, 150.3 68.86 C146.18 76.27, 137.4 83.71, 128.24 89.01 C119.09 94.31, 106.84 98.91, 95.36 100.64 C83.88 102.38, 70.93 101.43, 59.36 99.4 C47.79 97.38, 35.11 93.63, 25.93 88.49 C16.76 83.34, 8.63 75.96, 4.32 68.55 C0.02 61.14, -1.45 51.8, 0.12 44.02 C1.69 36.23, 6.63 28.33, 13.74 21.85 C20.84 15.38, 32 8.84, 42.74 5.18 C53.49 1.53, 65.9 -0.47, 78.22 -0.08 C90.54 0.31, 109.37 5.8, 116.65 7.51 C123.92 9.23, 122.65 9.64, 121.89 10.2 M55.66 3.51 C66.15 0.64, 79.02 -0.86, 90.54 0.67 C102.07 2.2, 115.28 7.45, 124.83 12.7 C134.37 17.95, 142.73 25.07, 147.79 32.18 C152.86 39.28, 156.28 47.7, 155.21 55.33 C154.14 62.97, 147.94 71.17, 141.39 77.98 C134.84 84.8, 126.34 92.12, 115.9 96.22 C105.47 100.33, 91.19 102.74, 78.76 102.61 C66.32 102.48, 51.9 99.21, 41.3 95.45 C30.7 91.69, 22.11 86.15, 15.14 80.04 C8.18 73.93, 1.44 66.43, -0.48 58.79 C-2.4 51.15, -0.82 41.82, 3.63 34.21 C8.08 26.6, 17.76 18.66, 26.24 13.11 C34.71 7.56, 49.56 2.48, 54.48 0.91 C59.4 -0.66, 55.24 2.68, 55.77 3.7" stroke="#000000" stroke-width="1" fill="none"></path></g><g transform="translate(759.4771241830064 905.1911764705897) rotate(0 57.5 25)"><text x="57.5" y="18" font-family="Virgil, Segoe UI Emoji" font-size="20px" fill="#000000" text-anchor="middle" style="white-space: pre;" direction="ltr">Wait For</text><text x="57.5" y="43" font-family="Virgil, Segoe UI Emoji" font-size="20px" fill="#000000" text-anchor="middle" style="white-space: pre;" direction="ltr">Maybe Home</text></g><g stroke-linecap="round"><g transform="translate(728.9771241830064 934.9411764705897) rotate(0 -39.34414001447152 -50.26420346237717)"><path d="M0.81 0.19 C-12.5 -7.26, -73.49 -26.78, -78.88 -43.6 C-84.27 -60.41, -39.77 -91.21, -31.55 -100.71 M-0.22 -0.76 C-13.73 -7.49, -74.67 -25.65, -79.5 -42.11 C-84.33 -58.57, -37.66 -89.93, -29.21 -99.51" stroke="#000000" stroke-width="1" fill="none"></path></g><g transform="translate(728.9771241830064 934.9411764705897) rotate(0 -39.34414001447152 -50.26420346237717)"><path d="M-43.41 -72.22 C-38.54 -85.19, -33.16 -91.95, -29.42 -98.99 M-43.54 -73.47 C-38.82 -82.02, -35.67 -89.74, -29.79 -99.18" stroke="#000000" stroke-width="1" fill="none"></path></g><g transform="translate(728.9771241830064 934.9411764705897) rotate(0 -39.34414001447152 -50.26420346237717)"><path d="M-56.9 -87.69 C-46.71 -94.81, -36.15 -95.62, -29.42 -98.99 M-57.02 -88.94 C-47.95 -92.49, -40.54 -95.32, -29.79 -99.18" stroke="#000000" stroke-width="1" fill="none"></path></g></g><g transform="translate(666.9771241830064 861.9411764705897) rotate(0 28.5 25)"><text x="28.5" y="18" font-family="Virgil, Segoe UI Emoji" font-size="20px" fill="#000000" text-anchor="middle" style="white-space: pre;" direction="ltr">Start</text><text x="28.5" y="43" font-family="Virgil, Segoe UI Emoji" font-size="20px" fill="#000000" text-anchor="middle" style="white-space: pre;" direction="ltr">Press</text></g><g stroke-linecap="round"><g transform="translate(1343.0831847890668 477.8199643493713) rotate(0 58.666697720404386 115.32471180771228)"><path d="M-0.69 0.85 C5.69 32.79, 18.76 152.63, 38.55 190.75 C58.33 228.86, 104.65 222.74, 118.02 229.55 M1.15 0.25 C7.34 31.88, 18.17 150.42, 37.55 188.78 C56.93 227.13, 104.35 223.58, 117.41 230.4" stroke="#000000" stroke-width="1" fill="none"></path></g><g transform="translate(1343.0831847890668 477.8199643493713) rotate(0 58.666697720404386 115.32471180771228)"><path d="M89 233.49 C97.69 233.26, 105.3 233.48, 119.38 230.09 M86.78 233.94 C97.69 233.44, 109.35 231.66, 117.06 230.32" stroke="#000000" stroke-width="1" fill="none"></path></g><g transform="translate(1343.0831847890668 477.8199643493713) rotate(0 58.666697720404386 115.32471180771228)"><path d="M93.9 213.56 C100.86 219.72, 106.9 226.34, 119.38 230.09 M91.67 214.01 C100.74 220.42, 110.7 225.6, 117.06 230.32" stroke="#000000" stroke-width="1" fill="none"></path></g></g><g transform="translate(1346.2650029708852 637.9108734402803) rotate(0 45 25)"><text x="45" y="18" font-family="Virgil, Segoe UI Emoji" font-size="20px" fill="#000000" text-anchor="middle" style="white-space: pre;" direction="ltr">LBump</text><text x="45" y="43" font-family="Virgil, Segoe UI Emoji" font-size="20px" fill="#000000" text-anchor="middle" style="white-space: pre;" direction="ltr">Sel press</text></g><g stroke-linecap="round" transform="translate(1458.0831847890672 661.4563279857348) rotate(0 63.863636363636374 44.545454545454504)"><path d="M89.8 3.56 C99.69 6.06, 110.35 13, 116.67 19.27 C122.99 25.54, 126.81 33.6, 127.71 41.18 C128.61 48.77, 126.78 57.97, 122.05 64.76 C117.32 71.54, 108.48 77.81, 99.32 81.91 C90.16 86.02, 77.96 89.1, 67.09 89.39 C56.23 89.68, 43.67 87.21, 34.12 83.66 C24.57 80.11, 15.38 74.34, 9.8 68.09 C4.22 61.83, 0.89 53.68, 0.63 46.12 C0.38 38.56, 3.09 29.36, 8.25 22.72 C13.41 16.07, 22.39 10.14, 31.57 6.23 C40.74 2.33, 52.44 -0.52, 63.29 -0.7 C74.14 -0.88, 90.56 3.71, 96.65 5.15 C102.74 6.59, 100.48 7.1, 99.82 7.94 M46.37 1.08 C55.9 -1.64, 69.35 0.11, 79.65 1.89 C89.95 3.66, 100.68 6.42, 108.17 11.73 C115.66 17.04, 121.73 26.23, 124.58 33.73 C127.42 41.24, 127.77 49.67, 125.26 56.77 C122.75 63.87, 117.24 71.27, 109.52 76.34 C101.8 81.4, 89.52 85.53, 78.94 87.17 C68.35 88.81, 56.45 88.01, 46.01 86.16 C35.56 84.31, 23.66 81.28, 16.28 76.05 C8.9 70.81, 3.94 62.04, 1.73 54.75 C-0.48 47.45, -0.23 39.31, 3 32.29 C6.22 25.26, 14 17.72, 21.08 12.59 C28.16 7.46, 41.5 3.22, 45.46 1.49 C49.42 -0.24, 44.32 1.28, 44.82 2.21" stroke="#000000" stroke-width="1" fill="none"></path></g><g transform="translate(1484.6286393345213 683.274509803917) rotate(0 40.5 25)"><text x="40.5" y="18" font-family="Virgil, Segoe UI Emoji" font-size="20px" fill="#000000" text-anchor="middle" style="white-space: pre;" direction="ltr">wait for</text><text x="40.5" y="43" font-family="Virgil, Segoe UI Emoji" font-size="20px" fill="#000000" text-anchor="middle" style="white-space: pre;" direction="ltr">RTZ</text></g><g stroke-linecap="round"><g transform="translate(1478.9414343053054 748.1323317341116) rotate(0 -13.542683706914772 15.83395636559078)"><path d="M-0.88 0.46 C-5.49 5.61, -22.72 25.43, -26.9 30.73 M0.86 -0.34 C-3.99 4.99, -23.41 26.88, -27.94 32.01" stroke="#000000" stroke-width="1" fill="none"></path></g><g transform="translate(1478.9414343053054 748.1323317341116) rotate(0 -13.542683706914772 15.83395636559078)"><path d="M-19.63 12.6 C-23.97 21.01, -24.17 26.91, -28.68 31.36 M-19.48 12.13 C-22.41 18.85, -26.64 26.55, -28.68 32.93" stroke="#000000" stroke-width="1" fill="none"></path></g><g transform="translate(1478.9414343053054 748.1323317341116) rotate(0 -13.542683706914772 15.83395636559078)"><path d="M-9.11 21.92 C-17.23 26.89, -21.23 29.42, -28.68 31.36 M-8.97 21.46 C-15.37 25.06, -23.18 29.59, -28.68 32.93" stroke="#000000" stroke-width="1" fill="none"></path></g></g><g transform="translate(1483.2801544860363 763.7442067736133) rotate(0 14.5 25)"><text x="14.5" y="18" font-family="Virgil, Segoe UI Emoji" font-size="20px" fill="#000000" text-anchor="middle" style="white-space: pre;" direction="ltr">Sel</text><text x="14.5" y="43" font-family="Virgil, Segoe UI Emoji" font-size="20px" fill="#000000" text-anchor="middle" style="white-space: pre;" direction="ltr">Up</text></g><g stroke-linecap="round" transform="translate(1343.5377302436123 772.8199643493713) rotate(0 62.5 28.63636363636374)"><path d="M64.66 -0.4 C75.11 -0.86, 88.12 1.71, 97.26 4.56 C106.4 7.42, 114.9 11.92, 119.53 16.73 C124.15 21.54, 126.84 28.2, 125.01 33.44 C123.17 38.67, 116.11 44.46, 108.52 48.14 C100.92 51.83, 90.16 54.31, 79.45 55.55 C68.74 56.79, 55.09 56.87, 44.26 55.58 C33.43 54.29, 21.63 51.74, 14.46 47.81 C7.29 43.89, 2.73 37.17, 1.23 32.04 C-0.27 26.92, 0.95 21.43, 5.45 17.06 C9.94 12.69, 19.08 8.74, 28.18 5.83 C37.28 2.92, 53.18 0.66, 60.04 -0.42 C66.91 -1.5, 67.5 -1.01, 69.37 -0.68 C71.25 -0.34, 71.67 1.13, 71.31 1.59 M42.39 0.26 C52.52 -1.87, 67.2 -0.49, 78.22 1.15 C89.24 2.79, 101 6.46, 108.51 10.09 C116.03 13.73, 121.23 18.25, 123.32 22.97 C125.41 27.7, 124.87 33.92, 121.07 38.45 C117.28 42.99, 109.48 47.31, 100.55 50.18 C91.62 53.05, 78.92 54.97, 67.51 55.69 C56.1 56.4, 41.75 56.44, 32.07 54.48 C22.4 52.53, 14.62 48.38, 9.46 43.96 C4.3 39.54, 0.82 33.44, 1.09 27.95 C1.35 22.46, 4.78 15.21, 11.03 11.01 C17.29 6.82, 33.67 4.45, 38.64 2.8 C43.62 1.15, 40.04 1.44, 40.89 1.09 C41.73 0.74, 43.37 0.27, 43.72 0.72" stroke="#000000" stroke-width="4" fill="none"></path></g><g transform="translate(1366.9922756981578 777.365418894826) rotate(0 39.5 25)"><text x="39.5" y="18" font-family="Virgil, Segoe UI Emoji" font-size="20px" fill="#000000" text-anchor="middle" style="white-space: pre;" direction="ltr">Return</text><text x="39.5" y="43" font-family="Virgil, Segoe UI Emoji" font-size="20px" fill="#000000" text-anchor="middle" style="white-space: pre;" direction="ltr">to Zero</text></g><g stroke-linecap="round"><g transform="translate(1347.1721360793804 777.3774008855205) rotate(0 -6.821653779762528 -147.53877053702172)"><path d="M0.35 -0.99 C-1.17 -35.13, -6.17 -155.5, -8.54 -204.4 C-10.9 -253.3, -12.85 -279.18, -13.84 -294.4 M-0.92 1.1 C-2.6 -33.39, -7.02 -156.41, -9.2 -205.96 C-11.38 -255.51, -13.21 -281.39, -14 -296.18" stroke="#000000" stroke-width="1" fill="none"></path></g><g transform="translate(1347.1721360793804 777.3774008855205) rotate(0 -6.821653779762528 -147.53877053702172)"><path d="M-3.76 -267.72 C-4.59 -276.3, -8.74 -286.95, -14.38 -297.95 M-3.06 -268.86 C-4.09 -273.82, -8.19 -280.96, -13.02 -295.56" stroke="#000000" stroke-width="1" fill="none"></path></g><g transform="translate(1347.1721360793804 777.3774008855205) rotate(0 -6.821653779762528 -147.53877053702172)"><path d="M-24.25 -266.52 C-17.92 -275.58, -14.91 -286.65, -14.38 -297.95 M-23.54 -267.66 C-20.23 -272.83, -19.97 -280.23, -13.02 -295.56" stroke="#000000" stroke-width="1" fill="none"></path></g></g><g stroke-linecap="round"><g transform="translate(1444.9013666072487 387.8199643493713) rotate(0 103.01814841894429 -24.836358081509673)"><path d="M0.55 -0.63 C34.41 -9.14, 170.07 -43, 204.3 -51.32 M-0.61 1.65 C33.53 -6.71, 172.26 -41.74, 206.65 -50.24" stroke="#000000" stroke-width="1" fill="none"></path></g><g transform="translate(1444.9013666072487 387.8199643493713) rotate(0 103.01814841894429 -24.836358081509673)"><path d="M180.73 -34.6 C190.25 -38.61, 201.35 -45.63, 208.45 -48.59 M182.02 -33.6 C189.45 -38.18, 199.4 -44.52, 205.95 -51.13" stroke="#000000" stroke-width="1" fill="none"></path></g><g transform="translate(1444.9013666072487 387.8199643493713) rotate(0 103.01814841894429 -24.836358081509673)"><path d="M175.76 -54.51 C187.21 -50.63, 200.28 -49.76, 208.45 -48.59 M177.04 -53.51 C185.98 -51.38, 197.6 -51.04, 205.95 -51.13" stroke="#000000" stroke-width="1" fill="none"></path></g></g><g stroke-linecap="round"><g transform="translate(1457.1740938799758 414.18360071300776) rotate(0 105.20721975492836 -8.580326323097665)"><path d="M0.97 -0.53 C35.52 -3.62, 173.67 -16.06, 208.17 -18.97 M0.02 1.81 C34.87 -1.08, 175.35 -13.97, 210.4 -17.61" stroke="#000000" stroke-width="1" fill="none"></path></g><g transform="translate(1457.1740938799758 414.18360071300776) rotate(0 105.20721975492836 -8.580326323097665)"><path d="M182.45 -6.22 C192.81 -11.54, 204.42 -15.97, 211.11 -17.42 M184.22 -3.85 C191.06 -7.36, 197.03 -10.46, 211.24 -16.96" stroke="#000000" stroke-width="1" fill="none"></path></g><g transform="translate(1457.1740938799758 414.18360071300776) rotate(0 105.20721975492836 -8.580326323097665)"><path d="M180.47 -26.65 C191.49 -24.44, 203.84 -21.33, 211.11 -17.42 M182.24 -24.27 C189.58 -22.66, 196.05 -20.65, 211.24 -16.96" stroke="#000000" stroke-width="1" fill="none"></path></g></g><g transform="translate(1453.7195484254303 419.72905525846227) rotate(0 98 12.5)"><text x="98" y="18" font-family="Virgil, Segoe UI Emoji" font-size="20px" fill="#000000" text-anchor="middle" style="white-space: pre;" direction="ltr">RBump+Start Press</text></g><g stroke-linecap="round" transform="translate(1678.5377302436123 371.00178253118975) rotate(0 77.72727272727275 33.409090909090764)"><path d="M88.98 0.48 C100.91 0.55, 114.81 3.22, 124.74 6.41 C134.67 9.6, 143.66 14.54, 148.56 19.62 C153.45 24.71, 155.19 31.41, 154.12 36.93 C153.04 42.44, 149.1 48.2, 142.1 52.7 C135.11 57.2, 123.75 61.69, 112.16 63.91 C100.58 66.13, 85.28 66.41, 72.6 66.01 C59.91 65.62, 46.54 64.35, 36.04 61.56 C25.54 58.78, 15.6 54.28, 9.59 49.33 C3.58 44.38, -0.16 37.48, -0.02 31.85 C0.13 26.23, 4.16 20.28, 10.48 15.58 C16.8 10.89, 27 6.3, 37.9 3.7 C48.8 1.1, 64.69 0.24, 75.86 -0.01 C87.03 -0.26, 97.68 1.19, 104.91 2.2 C112.13 3.21, 119.71 5.54, 119.22 6.03 M86.53 -0.85 C98.64 -0.99, 111.44 1.93, 121.69 4.99 C131.94 8.04, 142.58 12.61, 148.05 17.49 C153.52 22.38, 155.06 28.52, 154.51 34.31 C153.95 40.11, 151.32 47.69, 144.74 52.27 C138.17 56.84, 126.28 59.35, 115.07 61.79 C103.86 64.22, 90.3 66.97, 77.5 66.87 C64.7 66.76, 49.48 63.95, 38.28 61.17 C27.08 58.39, 16.68 54.49, 10.31 50.18 C3.93 45.88, 0.32 40.85, 0.03 35.33 C-0.26 29.82, 2.68 22.09, 8.54 17.1 C14.41 12.11, 24.62 8.01, 35.22 5.38 C45.81 2.75, 63.83 2.39, 72.12 1.31 C80.41 0.23, 82.72 -0.78, 84.94 -1.11 C87.17 -1.44, 85.44 -1.19, 85.46 -0.66" stroke="#000000" stroke-width="1" fill="none"></path></g><g transform="translate(1706.2650029708848 379.4108734402805) rotate(0 50 25)"><text x="50" y="18" font-family="Virgil, Segoe UI Emoji" font-size="20px" fill="#000000" text-anchor="middle" style="white-space: pre;" direction="ltr">Wait For</text><text x="50" y="43" font-family="Virgil, Segoe UI Emoji" font-size="20px" fill="#000000" text-anchor="middle" style="white-space: pre;" direction="ltr">Unlock Rel</text></g><g stroke-linecap="round"><g transform="translate(1839.9013666072487 393.72905525846227) rotate(0 41.56976892682724 6.304957786648686)"><path d="M-0.17 1.04 C13.97 3.16, 70.48 10.17, 84.86 12.08 M-1.72 0.53 C12.26 2.33, 69.22 8.43, 83.83 10.09" stroke="#000000" stroke-width="1" fill="none"></path></g><g transform="translate(1839.9013666072487 393.72905525846227) rotate(0 41.56976892682724 6.304957786648686)"><path d="M56.41 16.96 C63.91 16.95, 73.31 13.32, 85.78 8.14 M55.38 16.56 C62.12 15.09, 67.41 14.73, 83.91 10.64" stroke="#000000" stroke-width="1" fill="none"></path></g><g transform="translate(1839.9013666072487 393.72905525846227) rotate(0 41.56976892682724 6.304957786648686)"><path d="M58.66 -3.44 C65.37 2.68, 74.09 5.17, 85.78 8.14 M57.63 -3.83 C63.84 -0.51, 68.6 3.93, 83.91 10.64" stroke="#000000" stroke-width="1" fill="none"></path></g></g><g stroke-linecap="round" transform="translate(1926.7195484254307 378.7290552584627) rotate(0 54.09090909090901 25.45454545454527)"><path d="M67.45 1.1 C77.25 1.82, 87.7 5.56, 94.46 9.24 C101.22 12.92, 106.77 18.49, 108.03 23.17 C109.29 27.85, 106.67 33.18, 102.03 37.33 C97.38 41.47, 89.2 45.88, 80.18 48.04 C71.16 50.21, 58.43 50.82, 47.91 50.34 C37.4 49.86, 24.64 48.44, 17.07 45.18 C9.5 41.91, 4.68 35.68, 2.47 30.74 C0.26 25.79, 0.19 20.04, 3.79 15.5 C7.39 10.97, 15.44 6.04, 24.06 3.53 C32.68 1.01, 47.13 0.67, 55.51 0.43 C63.89 0.18, 70.03 1.3, 74.35 2.05 C78.67 2.8, 81.6 4.7, 81.43 4.94 M69.43 -0.47 C78.72 0.28, 88.78 4.13, 95.27 8.13 C101.76 12.13, 107.41 18.47, 108.38 23.56 C109.35 28.65, 106.34 34.29, 101.09 38.68 C95.83 43.07, 85.98 47.86, 76.83 49.9 C67.69 51.94, 56.3 52.17, 46.2 50.93 C36.11 49.7, 23.74 45.91, 16.28 42.5 C8.81 39.09, 3.63 34.98, 1.42 30.48 C-0.79 25.98, -0.97 19.89, 3.02 15.47 C7.01 11.06, 16.46 6.58, 25.35 3.98 C34.24 1.38, 48.94 0.61, 56.36 -0.13 C63.79 -0.86, 68.07 -0.82, 69.91 -0.44 C71.75 -0.06, 67.93 1.3, 67.4 2.14" stroke="#000000" stroke-width="4" fill="none"></path></g><g transform="translate(1836.8559120617942 375.63814616755326) rotate(0 43.5 25)"><text x="43.5" y="18" font-family="Virgil, Segoe UI Emoji" font-size="20px" fill="#000000" text-anchor="middle" style="white-space: pre;" direction="ltr">Start</text><text x="43.5" y="43" font-family="Virgil, Segoe UI Emoji" font-size="20px" fill="#000000" text-anchor="middle" style="white-space: pre;" direction="ltr">Released</text></g><g transform="translate(1950.8104575163397 393.274509803917) rotate(0 30 12.5)"><text x="30" y="18" font-family="Virgil, Segoe UI Emoji" font-size="20px" fill="#000000" text-anchor="middle" style="white-space: pre;" direction="ltr">Unlock</text></g><g stroke-linecap="round"><g transform="translate(1955.3559120617942 438.27450980391677) rotate(0 -268.19437416059554 12.106920719882794)"><path d="M0.94 0.01 C-43.07 3.79, -173.62 21.07, -263.24 23.52 C-352.87 25.97, -491.04 16.32, -536.8 14.69 M-0.03 -1.04 C-44.18 2.84, -174.2 21.9, -263.75 24.75 C-353.3 27.61, -491.64 17.81, -537.33 16.09" stroke="#000000" stroke-width="1" fill="none"></path></g><g transform="translate(1955.3559120617942 438.27450980391677) rotate(0 -268.19437416059554 12.106920719882794)"><path d="M-508.64 8.68 C-519.97 11.48, -529.2 13, -538.68 16.5 M-508.27 7.89 C-516.67 10.31, -527.33 12.28, -536.39 15.46" stroke="#000000" stroke-width="1" fill="none"></path></g><g transform="translate(1955.3559120617942 438.27450980391677) rotate(0 -268.19437416059554 12.106920719882794)"><path d="M-509.68 29.18 C-520.77 24.52, -529.62 18.58, -538.68 16.5 M-509.31 28.38 C-517.46 24.37, -527.78 19.92, -536.39 15.46" stroke="#000000" stroke-width="1" fill="none"></path></g></g><g stroke-linecap="round"><g transform="translate(1412.6286393345213 462.8199643493713) rotate(0 134.93994666128833 26.044300580842503)"><path d="M0.15 -1.1 C7.53 5.14, -0.85 28.22, 44.31 37.15 C89.47 46.08, 233.5 49.63, 271.12 52.48 M-1.24 0.94 C6.01 6.87, -1.81 26.73, 43.47 35.44 C88.76 44.14, 232.75 50.43, 270.46 53.18" stroke="#000000" stroke-width="1" fill="none"></path></g><g transform="translate(1412.6286393345213 462.8199643493713) rotate(0 134.93994666128833 26.044300580842503)"><path d="M239.88 62.11 C251.65 59.49, 257.03 55.04, 271.43 51.63 M241.41 62.02 C252.8 58.43, 264.73 54.45, 271.02 52.88" stroke="#000000" stroke-width="1" fill="none"></path></g><g transform="translate(1412.6286393345213 462.8199643493713) rotate(0 134.93994666128833 26.044300580842503)"><path d="M241.1 41.63 C252.46 45.15, 257.47 46.84, 271.43 51.63 M242.63 41.54 C253.42 45.87, 264.87 49.81, 271.02 52.88" stroke="#000000" stroke-width="1" fill="none"></path></g></g><g transform="translate(1457.7195484254307 475.63814616755326) rotate(0 84 12.5)"><text x="84" y="18" font-family="Virgil, Segoe UI Emoji" font-size="20px" fill="#000000" text-anchor="middle" style="white-space: pre;" direction="ltr">RBump+Sel Press</text></g><g stroke-linecap="round" transform="translate(1687.1740938799758 479.63814616755326) rotate(0 75.68181818181813 36.13636363636351)"><path d="M56.6 1.86 C67.58 -0.1, 82.75 0.13, 94.55 1.44 C106.36 2.75, 118.67 5.84, 127.44 9.72 C136.2 13.6, 143.5 19.12, 147.15 24.72 C150.8 30.32, 151.92 37.46, 149.32 43.31 C146.73 49.16, 139.55 55.4, 131.59 59.83 C123.63 64.25, 113.06 68.01, 101.58 69.86 C90.1 71.7, 74.98 71.94, 62.73 70.91 C50.48 69.87, 37.75 67.2, 28.07 63.66 C18.4 60.13, 9.16 55.05, 4.7 49.7 C0.25 44.34, -0.51 37.27, 1.34 31.54 C3.19 25.82, 8.59 20.22, 15.79 15.34 C23 10.45, 36.91 4.57, 44.55 2.22 C52.2 -0.13, 57.53 1.36, 61.67 1.23 C65.82 1.11, 68.97 1.09, 69.4 1.48 M66.17 0.02 C78.07 -1.12, 94.59 -0.22, 106.24 2.15 C117.88 4.51, 128.4 9.16, 136.02 14.2 C143.63 19.24, 150.47 26.76, 151.95 32.38 C153.44 38.01, 149.73 42.57, 144.92 47.96 C140.11 53.34, 132.24 60.53, 123.1 64.68 C113.96 68.83, 102.22 72.03, 90.08 72.87 C77.94 73.71, 62.28 71.93, 50.29 69.74 C38.3 67.55, 26.28 64.06, 18.11 59.75 C9.95 55.45, 3.61 49.71, 1.29 43.9 C-1.03 38.08, 0.3 30.46, 4.19 24.88 C8.07 19.3, 15.93 14.58, 24.6 10.43 C33.26 6.27, 49.24 1.87, 56.17 -0.06 C63.1 -1.99, 64.24 -1.42, 66.18 -1.15 C68.12 -0.88, 67.3 0.67, 67.8 1.57" stroke="#000000" stroke-width="1" fill="none"></path></g><g transform="translate(1713.8559120617942 490.77450980391677) rotate(0 49 25)"><text x="49" y="18" font-family="Virgil, Segoe UI Emoji" font-size="20px" fill="#000000" text-anchor="middle" style="white-space: pre;" direction="ltr">Wait For</text><text x="49" y="43" font-family="Virgil, Segoe UI Emoji" font-size="20px" fill="#000000" text-anchor="middle" style="white-space: pre;" direction="ltr">Reset Rel</text></g><g stroke-linecap="round"><g transform="translate(1841.7151350613635 513.7292194766601) rotate(0 48.86811805188131 -1.8805310482210302)"><path d="M-0.48 0.74 C15.98 0.12, 81.78 -3.69, 98.22 -4.5 M1.47 0.08 C17.86 -0.34, 81.5 -2.89, 97.52 -3.41" stroke="#000000" stroke-width="1" fill="none"></path></g><g transform="translate(1841.7151350613635 513.7292194766601) rotate(0 48.86811805188131 -1.8805310482210302)"><path d="M70.95 8.67 C75.41 5.8, 83.06 3.96, 98.85 -4.8 M69.46 7.67 C78.69 4.07, 88.02 1.27, 96.66 -2.43" stroke="#000000" stroke-width="1" fill="none"></path></g><g transform="translate(1841.7151350613635 513.7292194766601) rotate(0 48.86811805188131 -1.8805310482210302)"><path d="M70.2 -11.83 C74.71 -9.51, 82.55 -6.15, 98.85 -4.8 M68.71 -12.84 C78.37 -9.98, 87.94 -6.33, 96.66 -2.43" stroke="#000000" stroke-width="1" fill="none"></path></g></g><g stroke-linecap="round" transform="translate(1948.9922756981578 479.63814616755326) rotate(0 48.181818181818244 28.181818181818244)"><path d="M30.76 1.28 C38.7 -0.93, 50.92 -1.03, 60.05 0.52 C69.18 2.07, 79.55 6.26, 85.53 10.57 C91.52 14.88, 95.54 20.78, 95.96 26.38 C96.39 31.97, 93.07 39.48, 88.1 44.14 C83.13 48.8, 74.9 52.42, 66.12 54.34 C57.35 56.26, 44.59 57.18, 35.46 55.67 C26.32 54.16, 17.33 49.49, 11.31 45.3 C5.28 41.12, -0.11 36.08, -0.69 30.57 C-1.28 25.05, 2.48 17.03, 7.78 12.2 C13.08 7.38, 25.53 3.57, 31.12 1.61 C36.7 -0.34, 38.06 0.76, 41.31 0.47 C44.56 0.17, 50.51 -0.73, 50.63 -0.14 M59.77 0.38 C68.47 1.33, 78.37 7.05, 84.33 11.33 C90.29 15.6, 94.77 20.52, 95.54 26.01 C96.32 31.51, 93.76 39.39, 88.98 44.3 C84.19 49.2, 75.62 53.59, 66.81 55.44 C58 57.29, 45.68 56.84, 36.11 55.38 C26.53 53.92, 15.44 50.99, 9.35 46.68 C3.25 42.37, -0.32 35.01, -0.47 29.51 C-0.61 24, 3.29 18.4, 8.47 13.66 C13.66 8.91, 21.86 3.38, 30.62 1.05 C39.38 -1.29, 55.86 -0.27, 61.04 -0.36 C66.22 -0.46, 62.01 0.38, 61.69 0.49 C61.38 0.59, 59.75 -0.3, 59.17 0.26" stroke="#000000" stroke-width="4" fill="none"></path></g><g transform="translate(1968.1740938799758 482.8199643493715) rotate(0 29 25)"><text x="29" y="18" font-family="Virgil, Segoe UI Emoji" font-size="20px" fill="#000000" text-anchor="middle" style="white-space: pre;" direction="ltr">Soft</text><text x="29" y="43" font-family="Virgil, Segoe UI Emoji" font-size="20px" fill="#000000" text-anchor="middle" style="white-space: pre;" direction="ltr">Reset</text></g><g stroke-linecap="round"><g transform="translate(1951.2650029708852 522.8199643493713) rotate(0 -280.6680826286481 -2.539698113737927)"><path d="M-1.16 1.03 C-27.14 9.25, -70.15 48.65, -155.43 48.9 C-240.7 49.14, -445.12 19.66, -512.79 2.51 C-580.47 -14.63, -553.38 -44.53, -561.48 -53.97 M0.44 0.53 C-25.67 8.44, -70.21 46.66, -155.88 47.15 C-241.55 47.64, -445.94 20.13, -513.59 3.48 C-581.24 -13.18, -554.09 -43.27, -561.77 -52.81" stroke="#000000" stroke-width="1" fill="none"></path></g><g transform="translate(1951.2650029708852 522.8199643493713) rotate(0 -280.6680826286481 -2.539698113737927)"><path d="M-547.67 -23.92 C-552.33 -35.03, -558.86 -45.95, -561.58 -54.38 M-548.53 -24.5 C-552.7 -33.71, -557.28 -42.32, -562.1 -52.58" stroke="#000000" stroke-width="1" fill="none"></path></g><g transform="translate(1951.2650029708852 522.8199643493713) rotate(0 -280.6680826286481 -2.539698113737927)"><path d="M-568.13 -22.35 C-565.81 -33.8, -565.36 -45.25, -561.58 -54.38 M-568.99 -22.93 C-567.1 -32.76, -565.62 -41.84, -562.1 -52.58" stroke="#000000" stroke-width="1" fill="none"></path></g></g><g stroke-linecap="round"><g transform="translate(1355.8104575163397 477.3654188948258) rotate(0 159.01183852085524 93.86451292140094)"><path d="M0.34 0.06 C4.73 19.58, -2.4 91.52, 25.17 118.15 C52.74 144.78, 116.91 148.3, 165.75 159.85 C214.59 171.41, 292.89 183.1, 318.22 187.48 M-0.94 -0.96 C3.9 19.28, -0.92 92.66, 27.25 119.67 C55.42 146.68, 119.47 149.59, 168.09 161.09 C216.71 172.59, 294.23 184.55, 318.97 188.69" stroke="#000000" stroke-width="1" fill="none"></path></g><g transform="translate(1355.8104575163397 477.3654188948258) rotate(0 159.01183852085524 93.86451292140094)"><path d="M289.58 192.27 C295.35 191.28, 301.12 193.51, 319.31 189.45 M289.36 194.83 C295.94 192.87, 302.46 192.7, 319.15 189.04" stroke="#000000" stroke-width="1" fill="none"></path></g><g transform="translate(1355.8104575163397 477.3654188948258) rotate(0 159.01183852085524 93.86451292140094)"><path d="M292.9 172.02 C298.17 175.13, 303.27 181.46, 319.31 189.45 M292.68 174.58 C298.43 176.74, 304.28 180.69, 319.15 189.04" stroke="#000000" stroke-width="1" fill="none"></path></g></g><g transform="translate(1484.4013666072487 615.1836007130073) rotate(0 60.5 25)"><text x="60.5" y="18" font-family="Virgil, Segoe UI Emoji" font-size="20px" fill="#000000" text-anchor="middle" style="white-space: pre;" direction="ltr">No Bump</text><text x="60.5" y="43" font-family="Virgil, Segoe UI Emoji" font-size="20px" fill="#000000" text-anchor="middle" style="white-space: pre;" direction="ltr">Start Press</text></g><g stroke-linecap="round" transform="translate(1670.3559120617942 642.3654188948258) rotate(0 60.90909090909088 28.63636363636374)"><path d="M70.14 0.27 C80.86 0.7, 93.36 3.78, 101.58 7.06 C109.8 10.35, 116.57 15.11, 119.47 19.99 C122.37 24.87, 121.93 31.19, 118.97 36.34 C116.01 41.49, 110.09 47.42, 101.71 50.9 C93.33 54.37, 79.58 56.44, 68.69 57.19 C57.8 57.94, 46.09 57.5, 36.37 55.43 C26.65 53.36, 16.42 49.39, 10.37 44.77 C4.31 40.15, 0.31 33.08, 0.03 27.72 C-0.26 22.36, 2.92 16.78, 8.65 12.61 C14.39 8.44, 23.19 4.65, 34.45 2.7 C45.72 0.76, 67.95 0.8, 76.27 0.93 C84.58 1.06, 84.42 3.16, 84.35 3.48 M51.03 0.56 C61.09 -0.7, 75.14 0.97, 85.11 2.85 C95.07 4.73, 104.84 7.92, 110.8 11.84 C116.75 15.75, 120.67 21.27, 120.85 26.32 C121.03 31.36, 117.13 37.34, 111.88 42.09 C106.64 46.85, 98.99 52.6, 89.39 54.86 C79.78 57.12, 65.46 56.25, 54.24 55.66 C43.03 55.07, 30.42 54.33, 22.11 51.32 C13.8 48.31, 7.58 42.67, 4.39 37.62 C1.2 32.57, 0.43 25.93, 2.95 21.03 C5.48 16.13, 11.59 11.76, 19.55 8.23 C27.52 4.7, 45.42 1.24, 50.74 -0.16 C56.06 -1.56, 51.63 -0.81, 51.46 -0.18" stroke="#000000" stroke-width="1" fill="none"></path></g><g transform="translate(1684.7650029708852 646.0017825311895) rotate(0 46.5 25)"><text x="46.5" y="18" font-family="Virgil, Segoe UI Emoji" font-size="20px" fill="#000000" text-anchor="middle" style="white-space: pre;" direction="ltr">Wait For</text><text x="46.5" y="43" font-family="Virgil, Segoe UI Emoji" font-size="20px" fill="#000000" text-anchor="middle" style="white-space: pre;" direction="ltr">Sel Press</text></g><g stroke-linecap="round"><g transform="translate(1370.3559120617942 477.8199643493713) rotate(0 144.02451889751978 63.36026257476192)"><path d="M0.57 -0.23 C3.28 14.3, -7.47 66.91, 15.28 87.23 C38.04 107.54, 91.5 114.98, 137.1 121.65 C182.7 128.32, 263.52 126.24, 288.91 127.26 M-0.59 -1.4 C2.07 12.76, -8.86 64.68, 14.48 85.32 C37.82 105.95, 93.74 115.27, 139.43 122.4 C185.11 129.54, 263.27 127.16, 288.58 128.12" stroke="#000000" stroke-width="1" fill="none"></path></g><g transform="translate(1370.3559120617942 477.8199643493713) rotate(0 144.02451889751978 63.36026257476192)"><path d="M259.91 138.6 C267.13 134.01, 270.81 131.81, 287.8 127.13 M260.01 138.99 C268.52 135.05, 276.63 131.06, 288.37 127.31" stroke="#000000" stroke-width="1" fill="none"></path></g><g transform="translate(1370.3559120617942 477.8199643493713) rotate(0 144.02451889751978 63.36026257476192)"><path d="M260.09 118.08 C267.28 117.96, 270.92 120.23, 287.8 127.13 M260.19 118.47 C268.62 120.72, 276.67 122.91, 288.37 127.31" stroke="#000000" stroke-width="1" fill="none"></path></g></g><g transform="translate(1403.8559120617938 562.4563279857348) rotate(0 46.5 25)"><text x="46.5" y="18" font-family="Virgil, Segoe UI Emoji" font-size="20px" fill="#000000" text-anchor="middle" style="white-space: pre;" direction="ltr">No Bump</text><text x="46.5" y="43" font-family="Virgil, Segoe UI Emoji" font-size="20px" fill="#000000" text-anchor="middle" style="white-space: pre;" direction="ltr">Sel Press</text></g><g stroke-linecap="round" transform="translate(1658.5377302436123 573.2745098039168) rotate(0 55.90909090909099 27.5)"><path d="M65.74 -0.55 C75.86 -0.38, 88.18 3.17, 95.54 6.92 C102.91 10.68, 107.95 16.91, 109.95 21.96 C111.94 27.01, 111.37 32.64, 107.51 37.22 C103.66 41.79, 95.28 46.6, 86.81 49.42 C78.34 52.23, 66.92 53.84, 56.68 54.11 C46.44 54.39, 34.23 53.8, 25.39 51.06 C16.54 48.32, 7.78 42.45, 3.59 37.67 C-0.59 32.89, -1.94 27.3, 0.28 22.36 C2.51 17.42, 9.19 11.75, 16.95 8.02 C24.71 4.29, 37.5 1.3, 46.86 0 C56.22 -1.29, 67.84 -0.11, 73.11 0.25 C78.38 0.61, 78.93 1.6, 78.48 2.16 M72.35 2.24 C81.78 3.41, 92.38 5.98, 98.71 9.67 C105.05 13.36, 109.52 19.38, 110.35 24.38 C111.18 29.39, 108.65 34.87, 103.71 39.69 C98.78 44.5, 90.03 50.73, 80.73 53.26 C71.43 55.79, 58.38 55.73, 47.91 54.88 C37.45 54.02, 25.46 51.67, 17.93 48.12 C10.41 44.58, 5.33 38.36, 2.76 33.6 C0.19 28.83, -0.58 24.12, 2.5 19.55 C5.58 14.99, 12.74 9.26, 21.23 6.21 C29.73 3.17, 45.21 2.05, 53.47 1.26 C61.72 0.48, 67.63 1.22, 70.78 1.53 C73.92 1.84, 72.48 2.82, 72.33 3.12" stroke="#000000" stroke-width="1" fill="none"></path></g><g transform="translate(1669.9468211527033 575.7745098039168) rotate(0 44.5 25)"><text x="44.5" y="18" font-family="Virgil, Segoe UI Emoji" font-size="20px" fill="#000000" text-anchor="middle" style="white-space: pre;" direction="ltr">Wait for</text><text x="44.5" y="43" font-family="Virgil, Segoe UI Emoji" font-size="20px" fill="#000000" text-anchor="middle" style="white-space: pre;" direction="ltr">Start Pr</text></g><g stroke-linecap="round"><g transform="translate(1775.8104575163397 600.0926916220988) rotate(0 61.73702789968388 16.442236390916264)"><path d="M-0.37 0.7 C20.24 6.11, 103.27 26.36, 123.85 31.34 M1.63 0.02 C22.05 5.73, 102.14 27.63, 122.77 32.87" stroke="#000000" stroke-width="1" fill="none"></path></g><g transform="translate(1775.8104575163397 600.0926916220988) rotate(0 61.73702789968388 16.442236390916264)"><path d="M94.05 35.16 C102.29 33.1, 110.4 33.87, 123.76 34.01 M92.8 35.66 C101.23 33.84, 111.12 32.87, 122.43 33.04" stroke="#000000" stroke-width="1" fill="none"></path></g><g transform="translate(1775.8104575163397 600.0926916220988) rotate(0 61.73702789968388 16.442236390916264)"><path d="M99.31 15.32 C105.7 19.49, 112.16 26.5, 123.76 34.01 M98.06 15.82 C104.73 20.01, 113.05 24.97, 122.43 33.04" stroke="#000000" stroke-width="1" fill="none"></path></g></g><g stroke-linecap="round"><g transform="translate(1803.0831847890668 668.2745098039168) rotate(0 47.504821017203426 -15.36131184795363)"><path d="M-0.85 1.19 C14.64 -4.3, 77.78 -26.42, 93.47 -31.91 M0.91 0.77 C16.75 -4.09, 80.05 -25.62, 95.86 -30.9" stroke="#000000" stroke-width="1" fill="none"></path></g><g transform="translate(1803.0831847890668 668.2745098039168) rotate(0 47.504821017203426 -15.36131184795363)"><path d="M74.4 -13.21 C78.7 -19.86, 87.03 -23.45, 97.6 -30.82 M73.29 -11.29 C79.26 -18.02, 87.32 -24.09, 94.88 -31.53" stroke="#000000" stroke-width="1" fill="none"></path></g><g transform="translate(1803.0831847890668 668.2745098039168) rotate(0 47.504821017203426 -15.36131184795363)"><path d="M67.84 -32.66 C74.58 -32.53, 85.18 -29.39, 97.6 -30.82 M66.74 -30.73 C74.56 -31.49, 84.63 -31.61, 94.88 -31.53" stroke="#000000" stroke-width="1" fill="none"></path></g></g><g transform="translate(1797.0377302436123 672.9108734402807) rotate(0 46.5 12.5)"><text x="46.5" y="18" font-family="Virgil, Segoe UI Emoji" font-size="20px" fill="#000000" text-anchor="middle" style="white-space: pre;" direction="ltr">Sel Press</text></g><g transform="translate(1774.8559120617942 578.8199643493713) rotate(0 60.5 12.5)"><text x="60.5" y="18" font-family="Virgil, Segoe UI Emoji" font-size="20px" fill="#000000" text-anchor="middle" style="white-space: pre;" direction="ltr">Start Press</text></g><g stroke-linecap="round" transform="translate(1900.3559120617942 603.7290552584623) rotate(0 59.545454545454504 35.22727272727275)"><path d="M87.16 4.67 C96.41 6.96, 106.52 11.77, 111.89 17.15 C117.25 22.53, 120.09 30.45, 119.35 36.94 C118.6 43.44, 113.58 50.83, 107.42 56.13 C101.25 61.42, 91.98 66.24, 82.36 68.7 C72.73 71.17, 59.96 72.03, 49.65 70.93 C39.33 69.82, 28.33 66.35, 20.46 62.07 C12.59 57.79, 5.56 51.23, 2.43 45.25 C-0.7 39.26, -1.43 32.34, 1.68 26.16 C4.8 19.97, 13.18 12.51, 21.13 8.12 C29.07 3.72, 39.16 0.78, 49.34 -0.21 C59.51 -1.19, 75.29 1.26, 82.19 2.2 C89.09 3.14, 88.84 4.66, 90.73 5.45 C92.61 6.25, 93.9 6.58, 93.48 6.96 M68.95 0.58 C78.86 0.91, 90.92 3.73, 98.81 7.63 C106.71 11.52, 113.23 17.51, 116.34 23.94 C119.45 30.38, 120.29 39.74, 117.47 46.24 C114.66 52.74, 107.24 59.08, 99.44 62.94 C91.64 66.8, 81.16 68.83, 70.66 69.4 C60.17 69.97, 46.74 68.57, 36.49 66.34 C26.24 64.11, 15.06 61.1, 9.19 56.03 C3.32 50.96, 1.32 42.45, 1.25 35.91 C1.19 29.37, 3.84 22.29, 8.8 16.8 C13.75 11.3, 22 5.64, 30.96 2.95 C39.92 0.25, 56.06 0.91, 62.54 0.61 C69.01 0.32, 68.83 0.95, 69.82 1.18 C70.81 1.41, 68.51 1.37, 68.46 2.01" stroke="#000000" stroke-width="1" fill="none"></path></g><g transform="translate(1917.4013666072487 613.956327985735) rotate(0 42.5 25)"><text x="42.5" y="18" font-family="Virgil, Segoe UI Emoji" font-size="20px" fill="#000000" text-anchor="middle" style="white-space: pre;" direction="ltr">Wait For</text><text x="42.5" y="43" font-family="Virgil, Segoe UI Emoji" font-size="20px" fill="#000000" text-anchor="middle" style="white-space: pre;" direction="ltr">SS Rel</text></g><g stroke-linecap="round"><g transform="translate(1963.0831847890668 685.0926916220988) rotate(0 -53.33494132476085 35.99836595892805)"><path d="M0.78 0.07 C-16.93 12.34, -89.6 60.99, -107.45 72.93 M-0.26 -0.93 C-17.52 11.08, -87.5 59.07, -105.32 71.39" stroke="#000000" stroke-width="1" fill="none"></path></g><g transform="translate(1963.0831847890668 685.0926916220988) rotate(0 -53.33494132476085 35.99836595892805)"><path d="M-87.79 45.14 C-89.73 52.04, -95.3 56.79, -103.47 69.44 M-88.67 47.9 C-92.76 52.7, -97.76 59.09, -106.1 71.63" stroke="#000000" stroke-width="1" fill="none"></path></g><g transform="translate(1963.0831847890668 685.0926916220988) rotate(0 -53.33494132476085 35.99836595892805)"><path d="M-76.15 62.04 C-80.36 65.58, -88.3 66.9, -103.47 69.44 M-77.04 64.8 C-83.98 65.24, -91.95 67.32, -106.1 71.63" stroke="#000000" stroke-width="1" fill="none"></path></g></g><g transform="translate(1846.0377302436127 692.9108734402803) rotate(0 62.5 25)"><text x="62.5" y="18" font-family="Virgil, Segoe UI Emoji" font-size="20px" fill="#000000" text-anchor="middle" style="white-space: pre;" direction="ltr">Start or Sel</text><text x="62.5" y="43" font-family="Virgil, Segoe UI Emoji" font-size="20px" fill="#000000" text-anchor="middle" style="white-space: pre;" direction="ltr">Release</text></g><g stroke-linecap="round" transform="translate(1747.1740938799762 726.4563279857348) rotate(0 52.95454545454538 32.954545454545496)"><path d="M66.95 1.11 C76.27 2.36, 87.23 8.05, 93.8 12.67 C100.37 17.29, 105.26 23, 106.37 28.84 C107.48 34.67, 105.35 42.3, 100.45 47.68 C95.56 53.06, 85.73 58.05, 77.01 61.13 C68.28 64.21, 57.95 66.64, 48.09 66.14 C38.24 65.65, 25.61 62.11, 17.87 58.17 C10.14 54.22, 4.29 48.3, 1.69 42.47 C-0.9 36.64, -0.83 29.21, 2.32 23.18 C5.47 17.15, 12.8 10.26, 20.6 6.28 C28.39 2.3, 40.95 0.06, 49.1 -0.7 C57.26 -1.46, 65.76 0.98, 69.52 1.71 C73.28 2.44, 71.96 3.24, 71.67 3.66 M47.28 -0.99 C56.37 -2.02, 68.4 1.79, 76.93 4.68 C85.45 7.58, 93.73 11.3, 98.45 16.37 C103.16 21.44, 105.89 28.68, 105.21 35.13 C104.53 41.58, 100.67 50.35, 94.37 55.06 C88.07 59.77, 77.13 62.08, 67.42 63.39 C57.7 64.7, 45.62 64.63, 36.07 62.92 C26.52 61.22, 15.94 57.71, 10.12 53.16 C4.3 48.61, 1.6 41.74, 1.18 35.62 C0.75 29.5, 2.86 21.78, 7.58 16.46 C12.3 11.15, 22.77 6.5, 29.47 3.75 C36.17 1, 44.65 0.25, 47.77 -0.03 C50.88 -0.3, 48.22 1.72, 48.15 2.11" stroke="#000000" stroke-width="4" fill="none"></path></g><g transform="translate(1760.6286393345217 734.4108734402803) rotate(0 39.5 25)"><text x="39.5" y="18" font-family="Virgil, Segoe UI Emoji" font-size="20px" fill="#000000" text-anchor="middle" style="white-space: pre;" direction="ltr">Reset</text><text x="39.5" y="43" font-family="Virgil, Segoe UI Emoji" font-size="20px" fill="#000000" text-anchor="middle" style="white-space: pre;" direction="ltr">Zero-All</text></g><g stroke-linecap="round"><g transform="translate(1738.0831847890668 765.0926916220988) rotate(0 -214.37815034925075 -63.939446544916734)"><path d="M-0.89 0.69 C-65.67 26.39, -319.55 202.89, -389.61 154.19 C-459.67 105.49, -415.65 -217.25, -421.26 -291.51 M0.85 0.01 C-63.49 25.88, -317.02 203.88, -387.41 155.54 C-457.8 107.2, -415.46 -215.76, -421.49 -290.03" stroke="#000000" stroke-width="1" fill="none"></path></g><g transform="translate(1738.0831847890668 765.0926916220988) rotate(0 -214.37815034925075 -63.939446544916734)"><path d="M-410.86 -263.19 C-414.73 -266.35, -415.75 -276.15, -420.76 -288.58 M-412.81 -262.02 C-415.79 -270.66, -417.3 -280.13, -422.49 -289.46" stroke="#000000" stroke-width="1" fill="none"></path></g><g transform="translate(1738.0831847890668 765.0926916220988) rotate(0 -214.37815034925075 -63.939446544916734)"><path d="M-431.37 -263.75 C-430.63 -266.64, -427.03 -276.31, -420.76 -288.58 M-433.33 -262.58 C-429.59 -271.09, -424.38 -280.38, -422.49 -289.46" stroke="#000000" stroke-width="1" fill="none"></path></g></g><g stroke-linecap="round"><g transform="translate(1285.8368753338787 204.0641422966023) rotate(0 7.400215404102141 75.2809134266144)"><path d="M-0.32 -0.24 C2.26 24.66, 12.52 125.39, 15.12 150.64 M1.71 -1.42 C4.13 24.17, 11.82 126.3, 13.94 151.98" stroke="#000000" stroke-width="1" fill="none"></path></g><g transform="translate(1285.8368753338787 204.0641422966023) rotate(0 7.400215404102141 75.2809134266144)"><path d="M1.09 123.94 C4.5 131.65, 8.83 140.56, 15.24 151.78 M1.52 125.57 C6.18 133.77, 9.36 142.84, 13.89 151.12" stroke="#000000" stroke-width="1" fill="none"></path></g><g transform="translate(1285.8368753338787 204.0641422966023) rotate(0 7.400215404102141 75.2809134266144)"><path d="M21.55 122.33 C19.48 130.41, 18.3 139.77, 15.24 151.78 M21.98 123.96 C19.98 132.86, 16.51 142.45, 13.89 151.12" stroke="#000000" stroke-width="1" fill="none"></path></g></g><g stroke-linecap="round"><g transform="translate(644.6134878193701 728.9890023295497) rotate(0 -264.2602866738258 -356.4914528633606)"><path d="M1.13 -150.91 C-55.33 -173.35, -251.08 -217.3, -339.39 -285.82 C-427.69 -354.35, -497.31 -516.11, -528.7 -562.07 M0.27 -151.56 C-55.78 -174.37, -248.91 -219.25, -337.23 -287.48 C-425.55 -355.72, -498 -515.48, -529.65 -560.97" stroke="#000000" stroke-width="1" fill="none"></path></g><g transform="translate(644.6134878193701 728.9890023295497) rotate(0 -264.2602866738258 -356.4914528633606)"><path d="M-505.28 -543.59 C-510.89 -546.98, -518.79 -550.11, -529.5 -560.04 M-507.36 -541.88 C-514.16 -548.57, -520.53 -553.03, -529.83 -561.37" stroke="#000000" stroke-width="1" fill="none"></path></g><g transform="translate(644.6134878193701 728.9890023295497) rotate(0 -264.2602866738258 -356.4914528633606)"><path d="M-522.98 -533.22 C-524.24 -539.35, -527.74 -545.05, -529.5 -560.04 M-525.06 -531.5 C-526.47 -541.23, -527.49 -548.82, -529.83 -561.37" stroke="#000000" stroke-width="1" fill="none"></path></g></g></svg>